<svg width="25" height="25" viewBox="0 0 25 25" fill="none" xmlns="http://www.w3.org/2000/svg">
<path d="M22.0703 18.2373H2.92969C2.82227 18.2373 2.73438 18.3252 2.73438 18.4326V19.7998C2.73438 19.9072 2.82227 19.9951 2.92969 19.9951H22.0703C22.1777 19.9951 22.2656 19.9072 22.2656 19.7998V18.4326C22.2656 18.3252 22.1777 18.2373 22.0703 18.2373ZM4.04541 15.1807L5.01465 16.145C5.09033 16.2207 5.21484 16.2207 5.29053 16.145L11.0205 10.4346L13.4033 12.8101C13.5501 12.9555 13.7484 13.0371 13.9551 13.0371C14.1617 13.0371 14.36 12.9555 14.5068 12.8101L20.957 6.38428C21.0327 6.3086 21.0327 6.18409 20.957 6.1084L19.9878 5.14161C19.9511 5.10526 19.9015 5.08487 19.8499 5.08487C19.7982 5.08487 19.7486 5.10526 19.7119 5.14161L13.9575 10.8789L11.5723 8.50342C11.4255 8.35797 11.2272 8.27637 11.0205 8.27637C10.8139 8.27637 10.6156 8.35797 10.4687 8.50342L4.04541 14.9048C4.02715 14.9228 4.01265 14.9443 4.00275 14.968C3.99286 14.9917 3.98776 15.0171 3.98776 15.0427C3.98776 15.0684 3.99286 15.0938 4.00275 15.1175C4.01265 15.1412 4.02715 15.1626 4.04541 15.1807V15.1807Z" fill="#939393"/>
</svg>
