<svg width="96" height="96" viewBox="0 0 96 96" fill="none" xmlns="http://www.w3.org/2000/svg">
<path d="M48 24C45.0333 24 42.1332 24.8797 39.6665 26.528C37.1997 28.1762 35.2771 30.5189 34.1418 33.2597C33.0065 36.0006 32.7094 39.0166 33.2882 41.9264C33.867 44.8361 35.2956 47.5088 37.3934 49.6066C39.4912 51.7044 42.1639 53.133 45.0737 53.7118C47.9834 54.2906 50.9994 53.9935 53.7403 52.8582C56.4812 51.7229 58.8238 49.8003 60.4721 47.3336C62.1203 44.8668 63 41.9667 63 39C63 35.0218 61.4197 31.2064 58.6066 28.3934C55.7936 25.5804 51.9783 24 48 24Z" fill="#F24E1E"/>
<path d="M48 6C39.6932 6 31.5729 8.46326 24.6661 13.0783C17.7592 17.6933 12.376 24.2528 9.19708 31.9273C6.0182 39.6018 5.18646 48.0466 6.80704 56.1938C8.42762 64.341 12.4277 71.8247 18.3015 77.6985C24.1753 83.5723 31.659 87.5724 39.8062 89.193C47.9534 90.8136 56.3982 89.9818 64.0727 86.8029C71.7472 83.6241 78.3067 78.2408 82.9217 71.3339C87.5368 64.4271 90 56.3068 90 48C89.9873 36.8648 85.5582 26.1893 77.6845 18.3155C69.8107 10.4418 59.1352 6.0127 48 6V6ZM71.976 74.778C71.9162 70.843 70.313 67.089 67.5117 64.3248C64.7105 61.5605 60.9355 60.0074 57 60H39C35.0646 60.0074 31.2895 61.5605 28.4883 64.3248C25.687 67.089 24.0838 70.843 24.024 74.778C18.5837 69.9202 14.7472 63.5246 13.0225 56.438C11.2978 49.3514 11.7663 41.908 14.3659 35.0936C16.9656 28.2791 21.5737 22.415 27.5801 18.2777C33.5866 14.1404 40.708 11.9251 48.0015 11.9251C55.295 11.9251 62.4164 14.1404 68.4229 18.2777C74.4294 22.415 79.0375 28.2791 81.6371 35.0936C84.2367 41.908 84.7052 49.3514 82.9805 56.438C81.2558 63.5246 77.4193 69.9202 71.979 74.778H71.976Z" fill="#F24E1E"/>
</svg>
