<svg width="25" height="25" viewBox="0 0 25 25" fill="none" xmlns="http://www.w3.org/2000/svg">
<path fill-rule="evenodd" clip-rule="evenodd" d="M16.6666 9.375C16.6666 10.4801 16.2277 11.5399 15.4463 12.3213C14.6649 13.1027 13.605 13.5417 12.5 13.5417C11.3949 13.5417 10.3351 13.1027 9.5537 12.3213C8.7723 11.5399 8.33331 10.4801 8.33331 9.375C8.33331 8.26993 8.7723 7.21012 9.5537 6.42872C10.3351 5.64732 11.3949 5.20833 12.5 5.20833C13.605 5.20833 14.6649 5.64732 15.4463 6.42872C16.2277 7.21012 16.6666 8.26993 16.6666 9.375V9.375ZM14.5833 9.375C14.5833 9.92753 14.3638 10.4574 13.9731 10.8481C13.5824 11.2388 13.0525 11.4583 12.5 11.4583C11.9474 11.4583 11.4175 11.2388 11.0268 10.8481C10.6361 10.4574 10.4166 9.92753 10.4166 9.375C10.4166 8.82246 10.6361 8.29256 11.0268 7.90186C11.4175 7.51116 11.9474 7.29167 12.5 7.29167C13.0525 7.29167 13.5824 7.51116 13.9731 7.90186C14.3638 8.29256 14.5833 8.82246 14.5833 9.375V9.375Z" fill="#939393"/>
<path fill-rule="evenodd" clip-rule="evenodd" d="M12.5 1.04167C6.17187 1.04167 1.04166 6.17188 1.04166 12.5C1.04166 18.8281 6.17187 23.9583 12.5 23.9583C18.8281 23.9583 23.9583 18.8281 23.9583 12.5C23.9583 6.17188 18.8281 1.04167 12.5 1.04167ZM3.12499 12.5C3.12499 14.6771 3.8677 16.6813 5.11249 18.2729C5.98669 17.1249 7.11447 16.1945 8.40773 15.5545C9.701 14.9145 11.1247 14.5821 12.5677 14.5833C13.992 14.582 15.3978 14.9058 16.678 15.53C17.9583 16.1542 19.0791 17.0624 19.9552 18.1854C20.8578 17.0017 21.4654 15.62 21.728 14.1548C21.9906 12.6895 21.9004 11.1828 21.4651 9.75936C21.0297 8.33587 20.2617 7.03651 19.2245 5.96879C18.1872 4.90107 16.9107 4.09569 15.5004 3.61928C14.0901 3.14287 12.5867 3.00914 11.1144 3.22914C9.6422 3.44914 8.24352 4.01655 7.03413 4.88443C5.82473 5.75231 4.83938 6.8957 4.1596 8.22C3.47983 9.54429 3.12518 11.0114 3.12499 12.5V12.5ZM12.5 21.875C10.3479 21.8782 8.26069 21.1379 6.59166 19.7792C7.26346 18.8174 8.15763 18.0322 9.19811 17.4903C10.2386 16.9484 11.3946 16.6658 12.5677 16.6667C13.7262 16.6657 14.8682 16.9412 15.8989 17.4702C16.9295 17.9992 17.8191 18.7665 18.4937 19.7083C16.8118 21.1112 14.6902 21.8781 12.5 21.875V21.875Z" fill="#939393"/>
</svg>
