<svg width="25" height="25" viewBox="0 0 25 25" fill="none" xmlns="http://www.w3.org/2000/svg">
<path d="M12.5 13.5417V21.875M5.20833 9.375C5.20833 8.82247 5.42783 8.29256 5.81853 7.90186C6.20923 7.51116 6.73913 7.29167 7.29167 7.29167H17.7083C18.2609 7.29167 18.7908 7.51116 19.1815 7.90186C19.5722 8.29256 19.7917 8.82247 19.7917 9.375V14.5833C19.7917 16.5172 19.0234 18.3719 17.656 19.7393C16.2885 21.1068 14.4339 21.875 12.5 21.875V21.875C10.5661 21.875 8.71147 21.1068 7.34401 19.7393C5.97656 18.3719 5.20833 16.5172 5.20833 14.5833V9.375ZM8.33333 6.25V5.80729C8.33333 4.78542 8.73333 3.76563 9.71458 3.47604C11.3031 3.00729 13.6969 3.00729 15.2854 3.47604C16.2667 3.76563 16.6667 4.78542 16.6667 5.80729V6.25H8.33333ZM19.2708 7.8125L22.9167 4.16667L19.2708 7.8125ZM5.72917 7.8125L2.08333 4.16667L5.72917 7.8125ZM6.25 18.75L2.08333 21.875L6.25 18.75ZM5.20833 12.5H1.5625H5.20833ZM23.4375 12.5H19.7917H23.4375ZM18.75 18.75L22.9167 21.875L18.75 18.75Z" stroke="#939393" stroke-width="2.08333" stroke-linecap="round" stroke-linejoin="round"/>
</svg>
