<svg width="25" height="25" viewBox="0 0 25 25" fill="none" xmlns="http://www.w3.org/2000/svg">
<path d="M22.6563 9.375C22.6563 8.9606 22.4916 8.56317 22.1986 8.27015C21.9056 7.97712 21.5082 7.8125 21.0938 7.8125H17.9688V4.6875C17.9688 4.2731 17.8041 3.87567 17.5111 3.58265C17.2181 3.28962 16.8207 3.125 16.4063 3.125H3.90625C3.49185 3.125 3.09442 3.28962 2.8014 3.58265C2.50837 3.87567 2.34375 4.2731 2.34375 4.6875V17.1875C2.34334 17.3354 2.38546 17.4804 2.46511 17.605C2.54475 17.7297 2.65856 17.8288 2.79297 17.8906C2.89665 17.9405 3.00996 17.9672 3.125 17.9688C3.30347 17.97 3.47654 17.9076 3.61328 17.793L7.03125 15.0391V17.9688C7.03125 18.3832 7.19587 18.7806 7.4889 19.0736C7.78192 19.3666 8.17935 19.5312 8.59375 19.5312H17.7344L21.3867 22.4805C21.4996 22.5739 21.637 22.6328 21.7825 22.6502C21.928 22.6675 22.0754 22.6425 22.207 22.5781C22.3414 22.5163 22.4553 22.4172 22.5349 22.2925C22.6145 22.1679 22.6567 22.0229 22.6563 21.875V9.375ZM6.50391 13.457L3.90625 15.5469V4.6875H16.4063V13.2812H6.99219C6.81373 13.28 6.64065 13.3424 6.50391 13.457ZM18.4961 18.1445C18.3594 18.0299 18.1863 17.9675 18.0078 17.9688H8.59375V14.8438H16.4063C16.8207 14.8438 17.2181 14.6791 17.5111 14.3861C17.8041 14.0931 17.9688 13.6957 17.9688 13.2812V9.375H21.0938V20.2344L18.4961 18.1445Z" fill="#939393"/>
</svg>
