<svg width="24" height="24" viewBox="0 0 24 24" fill="none" xmlns="http://www.w3.org/2000/svg">
<path d="M23.4563 20.9085C23.4563 22.4261 22.1231 23.6568 20.4765 23.6568H3.43651C1.79026 23.6568 0.455261 22.4261 0.455261 20.9085V7.84535C0.455261 6.33035 1.79026 5.09735 3.43651 5.09735H20.4765C22.1235 5.09735 23.4563 6.3296 23.4563 7.84535V20.9085Z" fill="#E0E0E0"/>
<path d="M6.34536 20.9085V7.84535C6.34536 6.33035 7.67924 5.09735 9.32511 5.09735H3.43761C1.79136 5.09735 0.45636 6.3296 0.45636 7.84535V20.9081C0.45636 22.4257 1.79136 23.6565 3.43761 23.6565H9.32511C7.67924 23.6565 6.34536 22.4261 6.34536 20.9085Z" fill="#D6D7D6"/>
<path d="M23.4563 8.96965C23.4563 9.59777 22.1231 10.1074 20.4765 10.1074H3.43651C1.79026 10.1074 0.455261 9.59777 0.455261 8.96965V3.55615C0.455261 2.92765 1.79026 2.4184 3.43651 2.4184H20.4765C22.1235 2.4184 23.4563 2.92765 23.4563 3.55615V8.96965Z" fill="#BE1E2D"/>
<path d="M11.2837 21.3263V14.3918C10.0174 15.3829 9.16536 15.8779 8.72624 15.8779C8.51699 15.8779 8.33286 15.7924 8.16974 15.6218C8.09251 15.5441 8.03146 15.4518 7.99014 15.3504C7.94881 15.2489 7.92803 15.1403 7.92899 15.0308C7.92899 14.7716 8.00661 14.5811 8.16674 14.4593C8.32536 14.3378 8.60699 14.181 9.01124 13.9856C9.61424 13.6976 10.0954 13.3935 10.4565 13.0736C10.8169 12.7536 11.1393 12.3931 11.4172 11.9993C11.6959 11.6021 11.8766 11.358 11.9625 11.2654C12.0461 11.1746 12.2062 11.13 12.4399 11.13C12.7057 11.13 12.9161 11.2335 13.0762 11.4416C13.2349 11.6501 13.3162 11.9359 13.3162 12.3026V21.0293C13.3162 22.0508 12.9742 22.5619 12.2906 22.5619C11.988 22.5619 11.7439 22.4565 11.5597 22.2503C11.3737 22.0414 11.2837 21.7331 11.2837 21.3263" fill="#25333A"/>
<path d="M8.62385 5.27627C8.62385 6.23289 7.86335 7.00577 6.92848 7.00577C5.99098 7.00577 5.23273 6.23289 5.23273 5.27627V1.81802C5.23273 0.861393 5.99135 0.0877686 6.92848 0.0877686C7.86335 0.0877686 8.62385 0.861393 8.62385 1.81802V5.27627ZM18.8062 5.27627C18.8062 6.23289 18.0487 7.00577 17.1112 7.00577C16.1752 7.00577 15.4159 6.23289 15.4159 5.27627V1.81802C15.4159 0.861393 16.1752 0.0877686 17.1112 0.0877686C18.0484 0.0877686 18.8062 0.861393 18.8062 1.81802V5.27627" fill="#D0D2D3"/>
</svg>
