<svg width="24" height="24" viewBox="0 0 24 24" fill="none" xmlns="http://www.w3.org/2000/svg">
<path fill-rule="evenodd" clip-rule="evenodd" d="M4.49013 8.25911C4.49023 7.8451 4.77738 7.33689 5.13269 7.12314L11.3443 3.38645C11.6991 3.17298 12.2738 3.17298 12.6293 3.3872L18.8431 7.13101C19.198 7.34476 19.4855 7.85317 19.4854 8.26895L19.4828 15.7317C19.4827 16.1464 19.1951 16.6566 18.8408 16.8712L12.6158 20.6404C12.2614 20.8551 11.6874 20.855 11.3324 20.6395L5.12923 16.8721C4.77485 16.6569 4.48779 16.1471 4.48798 15.7329L4.49013 8.2592V8.25911ZM5.79663 7.65217L11.9686 11.0983L17.8529 7.69726L11.9586 4.2362L5.79654 7.65217H5.79663ZM5.39857 8.76751C5.39857 8.92014 5.29873 15.5044 5.29873 15.5044C5.29554 15.7112 5.43626 15.9654 5.61438 16.0729L11.3905 19.5587L11.4437 12.3012C11.4437 12.3012 5.39866 8.61479 5.39866 8.76751H5.39857ZM12.5336 19.5429L18.2441 15.9186C18.4627 15.7798 18.64 15.4578 18.64 15.1987V8.73048L12.5336 12.2473V19.5429Z" fill="black"/>
<path fill-rule="evenodd" clip-rule="evenodd" d="M7.28998 12.4019C6.84167 12.6608 6.24729 12.4708 5.96248 11.9776C5.67776 11.4844 5.81042 10.8746 6.25873 10.6158C6.70714 10.3568 7.30151 10.5469 7.58623 11.0401C7.87104 11.5333 7.73839 12.1431 7.28998 12.4019ZM10.29 14.3707C9.84167 14.6296 9.24729 14.4396 8.96248 13.9463C8.67776 13.4531 8.81042 12.8434 9.25873 12.5845C9.70714 12.3256 10.3015 12.5156 10.5862 13.0088C10.871 13.5021 10.7384 14.1118 10.29 14.3707ZM7.28998 15.8707C6.84167 16.1296 6.24729 15.9396 5.96248 15.4463C5.67776 14.9531 5.81042 14.3434 6.25873 14.0845C6.70714 13.8256 7.30151 14.0156 7.58623 14.5088C7.87104 15.0021 7.73839 15.6118 7.28998 15.8707ZM10.29 17.8394C9.84167 18.0983 9.24729 17.9083 8.96248 17.4151C8.67776 16.9219 8.81042 16.3121 9.25873 16.0533C9.70714 15.7943 10.3015 15.9844 10.5862 16.4776C10.871 16.9708 10.7384 17.5806 10.29 17.8394ZM17.6248 10.522C17.1764 10.2631 16.5821 10.4531 16.2973 10.9463C16.0126 11.4396 16.1451 12.0493 16.5935 12.3082C17.0419 12.5671 17.6363 12.3771 17.921 11.8838C18.2059 11.3906 18.0732 10.7809 17.6248 10.522V10.522ZM16.1025 13.2408C15.6542 12.9818 15.0598 13.1719 14.775 13.6651C14.4903 14.1583 14.6229 14.7681 15.0712 15.0269C15.5196 15.2858 16.114 15.0958 16.3987 14.6026C16.6835 14.1094 16.5509 13.4996 16.1025 13.2408ZM14.5087 15.8658C14.0604 15.6068 13.466 15.7969 13.1812 16.2901C12.8965 16.7833 13.0292 17.3931 13.4775 17.6519C13.9259 17.9108 14.5203 17.7208 14.805 17.2276C15.0898 16.7344 14.9571 16.1246 14.5087 15.8658ZM12.0469 6.46875C11.4514 6.46875 10.9687 6.93047 10.9687 7.5C10.9687 8.06953 11.4514 8.53125 12.0469 8.53125C12.6423 8.53125 13.125 8.06953 13.125 7.5C13.125 6.93047 12.6423 6.46875 12.0469 6.46875Z" fill="black"/>
</svg>
