<svg width="24" height="24" viewBox="0 0 24 24" fill="none" xmlns="http://www.w3.org/2000/svg">
<path d="M5.50002 15C6.37467 14.9974 7.21624 14.6653 7.85702 14.07L14.117 17.647C13.6834 19.3413 14.5595 21.0969 16.174 21.7692C17.7885 22.4415 19.6517 21.8265 20.5488 20.3253C21.4458 18.824 21.1047 16.8918 19.7478 15.7885C18.3908 14.6852 16.4297 14.7455 15.143 15.93L8.88302 12.353C8.94865 12.1021 8.98489 11.8443 8.99102 11.585L15.142 8.07C16.3629 9.17994 18.1944 9.28285 19.532 8.31668C20.8696 7.35051 21.3474 5.57944 20.6774 4.07159C20.0074 2.56374 18.3727 1.73141 16.7591 2.07657C15.1456 2.42173 13.9945 3.85 14 5.5C14.0036 5.78808 14.0429 6.0746 14.117 6.353L8.43302 9.6C7.52251 8.19142 5.74074 7.62676 4.18513 8.25381C2.62951 8.88086 1.73741 10.5233 2.05828 12.1696C2.37915 13.8158 3.82278 15.0031 5.50002 15Z" fill="#2E3A59"/>
</svg>
