<svg width="24" height="24" viewBox="0 0 24 24" fill="none" xmlns="http://www.w3.org/2000/svg">
<path d="M23.8916 21.2865C23.8918 21.6244 23.8255 21.9589 23.6964 22.2712C23.5673 22.5834 23.3779 22.8671 23.1391 23.1061C22.9004 23.3451 22.6168 23.5347 22.3047 23.6641C21.9926 23.7935 21.6581 23.8601 21.3202 23.8601H2.60323C1.92102 23.8597 1.26691 23.5884 0.784767 23.1057C0.302621 22.6231 0.0319284 21.9687 0.0322268 21.2865V2.5725C0.0322268 1.152 1.18348 0 2.60323 0H21.3202C21.658 4.92359e-05 21.9924 0.0666307 22.3045 0.195942C22.6165 0.325254 22.9 0.514762 23.1388 0.753646C23.3775 0.992529 23.5669 1.27611 23.6961 1.58819C23.8253 1.90027 23.8917 2.23474 23.8916 2.5725V21.2865Z" fill="#E6E7E8"/>
<path d="M0.0322266 4.14372H23.8935H0.0322266ZM0.0322266 3.95585H23.8935V4.33085H0.0359766L0.0322266 3.95585ZM0.0322266 9.68922H23.8935H0.0322266ZM0.0322266 9.50172H23.8935V9.87672H0.0359766L0.0322266 9.50172ZM0.0322266 15.2467H23.8935H0.0322266ZM0.0322266 15.06H23.8935V15.435H0.0359766L0.0322266 15.06ZM0.0322266 20.7937H23.8935H0.0322266ZM0.0322266 20.6044H23.8935V20.9794H0.0359766L0.0322266 20.6044ZM3.85498 23.8612V0.00372314Z" fill="#939598"/>
<path d="M3.66711 0H4.04211V23.8613H3.66711V0ZM9.40124 23.8613V0.00375V23.8613ZM9.21224 0H9.58724V23.8613H9.21224V0ZM14.958 23.8613V0.00375V23.8613ZM14.7712 0H15.1462V23.8613H14.7712V0ZM20.5027 23.8613V0.00375V23.8613ZM20.3137 0H20.6887V23.8613H20.3137V0Z" fill="#939598"/>
<path d="M0 15.9037L6.50287 10.2487C6.43108 10.131 6.36476 10.01 6.30413 9.88612C6.03375 9.80249 5.76188 9.74849 5.49863 9.64349L0 14.3996V15.9071" fill="#EE4036"/>
<path d="M10.2652 15.9761C10.9991 16.0515 10.9207 15.9848 11.3809 15.5363L6.30335 9.69825C6.2039 9.58398 6.06312 9.51389 5.91199 9.50341C5.76086 9.49293 5.61175 9.54292 5.49748 9.64238C5.3832 9.74183 5.31312 9.88261 5.30264 10.0337C5.29216 10.1849 5.34215 10.334 5.4416 10.4483L10.2521 15.978C10.2566 15.9765 10.26 15.9754 10.2652 15.9761ZM23.8901 9.96413L20.9827 6.62138C20.9335 6.56489 20.8737 6.51865 20.8066 6.48529C20.7396 6.45193 20.6666 6.4321 20.5918 6.42695C20.5171 6.4218 20.4421 6.43141 20.3711 6.45525C20.3001 6.47909 20.2345 6.51668 20.178 6.56588C20.1212 6.61495 20.0747 6.67474 20.0411 6.74182C20.0076 6.80891 19.9875 6.88196 19.9822 6.95679C19.9769 7.03163 19.9865 7.10677 20.0103 7.17792C20.0341 7.24906 20.0717 7.3148 20.121 7.37138L23.8897 11.7038V9.96413" fill="#EE4036"/>
<path d="M11.2988 15.6154C11.0063 15.87 10.602 15.8831 10.395 15.6439C10.1884 15.4065 10.257 15.0079 10.5488 14.7536L19.9725 6.55574C20.2639 6.30224 20.6693 6.28911 20.8766 6.52649C21.0833 6.76386 21.0143 7.16399 20.7221 7.41749L11.2984 15.6154" fill="#EE4036"/>
</svg>
