<svg width="25" height="25" viewBox="0 0 25 25" fill="none" xmlns="http://www.w3.org/2000/svg">
<path d="M11.4583 24.5729V20.8229C6.23959 20.5521 2.08334 16.2188 2.08334 10.9375C2.08334 5.47917 6.52084 1.04167 11.9792 1.04167C17.4375 1.04167 21.875 5.47917 21.875 10.9375C21.875 16.0938 18.2917 21.2813 12.9479 23.8542L11.4583 24.5729ZM11.9792 3.12501C7.66668 3.12501 4.16668 6.62501 4.16668 10.9375C4.16668 15.25 7.66668 18.75 11.9792 18.75H13.5417V21.1458C17.3333 18.75 19.7917 14.8125 19.7917 10.9375C19.7917 6.62501 16.2917 3.12501 11.9792 3.12501ZM10.9375 15.1042H13.0208V17.1875H10.9375V15.1042ZM13.0208 13.5417H10.9375C10.9375 10.1563 14.0625 10.4167 14.0625 8.33334C14.0625 7.1875 13.125 6.25 11.9792 6.25C10.8333 6.25 9.89584 7.1875 9.89584 8.33334H7.81251C7.81251 6.03125 9.67709 4.16667 11.9792 4.16667C14.2813 4.16667 16.1458 6.03125 16.1458 8.33334C16.1458 10.9375 13.0208 11.1979 13.0208 13.5417Z" fill="#939393"/>
</svg>
