<svg width="24" height="24" viewBox="0 0 24 24" fill="none" xmlns="http://www.w3.org/2000/svg">
<g clip-path="url(#clip0_168_1031)">
<path d="M4.02753 2.44312H20.2913V24H4.02753V2.44312Z" fill="#006CA2"/>
<path d="M3.61877 3.24377H20.7206V18.2194H3.61877V3.24377Z" fill="#006CA2"/>
<path d="M19.8431 0.52124H4.15499C3.20249 0.52124 2.42249 1.29937 2.42249 2.25374V24H9.09749V21.495C9.09749 20.9644 9.53061 20.5294 10.0612 20.5294H13.935C14.4675 20.5294 14.9025 20.9644 14.9025 21.495V24H21.5775V2.25374C21.5756 1.30124 20.7975 0.52124 19.8431 0.52124V0.52124ZM7.15311 16.5337H4.71561V13.59H7.15311V16.5337ZM7.15311 11.8537H4.71561V8.90999H7.15311V11.8537V11.8537ZM7.15311 7.17562H4.71561V4.23187H7.15311V7.17562ZM11.2387 16.5337H8.79936V13.59H11.2387V16.5337V16.5337ZM11.2387 11.8537H8.79936V8.90999H11.2387V11.8537V11.8537ZM11.2387 7.17562H8.79936V4.23187H11.2387V7.17562V7.17562ZM15.3225 16.5337H12.885V13.59H15.3225V16.5337ZM15.3225 11.8537H12.885V8.90999H15.3225V11.8537V11.8537ZM15.3225 7.17562H12.885V4.23187H15.3225V7.17562ZM19.4081 16.5337H16.9687V13.59H19.4081V16.5337V16.5337ZM19.4081 11.8537H16.9687V8.90999H19.4081V11.8537V11.8537ZM19.4081 7.17562H16.9687V4.23187H19.4081V7.17562V7.17562Z" fill="#78A3AD"/>
</g>
<defs>
<clipPath id="clip0_168_1031">
<rect width="24" height="24" fill="white"/>
</clipPath>
</defs>
</svg>
