<svg width="24" height="24" viewBox="0 0 24 24" fill="none" xmlns="http://www.w3.org/2000/svg">
<path d="M21.1193 3.14934C21.0647 3.09134 21.0133 3.03201 20.9567 2.97534C19.0047 1.02268 16.366 0.494678 15.0647 1.79601L0.921997 15.9387L4.626 19.6427L21.1193 3.14934V3.14934Z" fill="#99AAB5"/>
<path d="M6.81467 17.1173C4.86267 15.1647 2.224 14.6367 0.922 15.9387C-0.38 17.2407 0.148 19.8787 2.10067 21.8307C4.05333 23.784 6.69133 24.3113 7.99333 23.01C9.29467 21.708 8.76733 19.07 6.81467 17.1173V17.1173Z" fill="#66757F"/>
<path d="M21.12 3.14935C22.9347 5.08135 23.3993 7.60402 22.1353 8.86735L7.99332 23.01C9.29532 21.708 8.76732 19.0707 6.81465 17.1174L4.22198 14.5247L18.364 0.382019L21.1253 3.14335L21.12 3.14935Z" fill="#CCD6DD"/>
<path d="M22.0627 2.20669C23.8774 4.13869 24.3427 6.66135 23.078 7.92469L8.93603 22.0667C10.238 20.7654 9.71069 18.1274 7.75736 16.1747L6.10736 14.5247L20.2494 0.382019L22.068 2.20069L22.0627 2.20669V2.20669Z" fill="#E1E8ED"/>
<path d="M1.47334 16.6687C0.538671 17.6027 0.914671 19.5827 2.32734 21.1747C3.60467 22.6133 5.62534 23.8467 7.118 22.59C7.626 22.168 7.89334 21.5187 7.88267 20.7667C7.864 19.4507 7.01734 17.972 5.674 16.9067C5.56981 16.825 5.43763 16.7877 5.30611 16.8028C5.17459 16.8179 5.05432 16.8842 4.97134 16.9873C4.93052 17.0388 4.90024 17.0978 4.88224 17.161C4.86423 17.2242 4.85885 17.2903 4.8664 17.3555C4.87396 17.4208 4.8943 17.4839 4.92626 17.5413C4.95822 17.5987 5.00117 17.6492 5.05267 17.69C6.15067 18.56 6.86867 19.774 6.88334 20.782C6.888 21.098 6.82 21.5353 6.47534 21.826C5.466 22.6747 3.864 21.3987 3.076 20.512C1.95867 19.2533 1.70734 17.8493 2.18067 17.376C2.30334 17.2533 2.45534 17.222 2.644 17.278C3.22867 17.4527 3.97734 18.386 4.33334 20.0813C4.34643 20.146 4.37217 20.2074 4.4091 20.2621C4.44603 20.3167 4.4934 20.3635 4.5485 20.3998C4.60359 20.436 4.66532 20.461 4.73012 20.4733C4.79492 20.4857 4.86151 20.485 4.92606 20.4715C4.99062 20.4579 5.05185 20.4317 5.10624 20.3944C5.16063 20.3571 5.2071 20.3094 5.24297 20.2541C5.27885 20.1987 5.30342 20.1368 5.31526 20.0719C5.32711 20.007 5.326 19.9405 5.312 19.876C4.91934 18.0027 4.00667 16.6407 2.93 16.3193C2.388 16.1573 1.85734 16.2853 1.47334 16.6687V16.6687ZM18.9547 2.85734C18.905 2.90683 18.8663 2.96622 18.841 3.03165C18.8158 3.09709 18.8046 3.1671 18.8082 3.23714C18.8118 3.30718 18.83 3.37568 18.8618 3.4382C18.8936 3.50071 18.9382 3.55584 18.9927 3.6C19.0133 3.616 21.0593 5.29267 21.164 7.47734C21.1755 7.60611 21.2364 7.72545 21.3339 7.81036C21.4313 7.89528 21.5579 7.93919 21.687 7.9329C21.8162 7.92661 21.9379 7.87061 22.0266 7.77662C22.1154 7.68264 22.1644 7.55795 22.1633 7.42867C22.0367 4.78867 19.718 2.89934 19.6193 2.82067C19.5235 2.7437 19.4027 2.70486 19.28 2.71163C19.1573 2.7184 19.0414 2.7703 18.9547 2.85734ZM17.54 4.27134C17.4904 4.32098 17.4518 4.38048 17.4267 4.44599C17.4016 4.51149 17.3905 4.58154 17.3941 4.6516C17.3978 4.72166 17.4161 4.79018 17.4479 4.85272C17.4797 4.91526 17.5242 4.97043 17.5787 5.01467C17.5993 5.03067 19.6453 6.70734 19.75 8.892C19.7565 9.02452 19.8153 9.14905 19.9136 9.23819C20.0118 9.32734 20.1415 9.37379 20.274 9.36734C20.4065 9.36088 20.5311 9.30205 20.6202 9.20378C20.7093 9.10551 20.7558 8.97586 20.7493 8.84334C20.622 6.20334 18.304 4.314 18.2053 4.23534C18.1096 4.15809 17.9886 4.11903 17.8658 4.12568C17.7429 4.13232 17.6269 4.18421 17.54 4.27134V4.27134ZM11.8827 9.92867C11.8707 9.94134 11.858 9.954 11.8467 9.968C11.8054 10.0191 11.7745 10.0778 11.756 10.1408C11.7374 10.2038 11.7314 10.2698 11.7383 10.3351C11.7452 10.4005 11.765 10.4638 11.7964 10.5215C11.8278 10.5791 11.8702 10.6301 11.9213 10.6713C11.942 10.6873 13.988 12.364 14.0927 14.5487C14.0991 14.6812 14.158 14.8057 14.2562 14.8949C14.3545 14.984 14.4842 15.0305 14.6167 15.024C14.7492 15.0176 14.8737 14.9587 14.9629 14.8604C15.052 14.7622 15.0985 14.6325 15.092 14.5C14.9647 11.8607 12.6467 9.97067 12.548 9.892C12.4522 9.81485 12.3312 9.7759 12.2083 9.78267C12.0854 9.78944 11.9695 9.84145 11.8827 9.92867ZM8.58334 13.228C8.53382 13.2777 8.49526 13.3371 8.47014 13.4026C8.44501 13.4681 8.43388 13.5381 8.43746 13.6081C8.44104 13.6781 8.45925 13.7466 8.49092 13.8092C8.52259 13.8718 8.56702 13.927 8.62134 13.9713C8.64267 13.9873 10.688 15.664 10.7927 17.8487C10.7992 17.9812 10.8581 18.1057 10.9565 18.1948C11.0548 18.2838 11.1845 18.3302 11.317 18.3237C11.4495 18.3171 11.574 18.2582 11.6631 18.1599C11.7522 18.0615 11.7985 17.9319 11.792 17.7993C11.6647 15.16 9.34734 13.2707 9.248 13.1913C9.15221 13.1144 9.03134 13.0755 8.90864 13.0823C8.78595 13.0891 8.67008 13.141 8.58334 13.228V13.228Z" fill="#99AAB5"/>
<path d="M16.5167 13.026C17.3807 12.1273 18.8434 10.7707 19.0207 10.5853C19.4294 10.1573 17.9934 6.93734 16.8194 6.016C16.562 5.814 16.2467 5.97734 16.1114 6.116C15.3005 6.94614 14.4833 7.77016 13.66 8.588C13.506 8.742 13.4167 9.022 13.634 9.22267C14.3454 9.87867 15.6247 11.5053 15.986 12.998C16.0287 13.172 16.338 13.2133 16.5167 13.026V13.026Z" fill="#5DADEC"/>
</svg>
