<svg width="25" height="25" viewBox="0 0 25 25" fill="none" xmlns="http://www.w3.org/2000/svg">
<path d="M23.6111 7.72222V4.56944C23.6111 3.74064 23.2819 2.94579 22.6958 2.35973C22.1098 1.77368 21.3149 1.44444 20.4861 1.44444H9.375C8.54619 1.44444 7.75134 1.77368 7.16529 2.35973C6.57924 2.94579 6.25 3.74064 6.25 4.56944V20.5417C6.25 21.0021 6.06709 21.4437 5.7415 21.7693C5.41592 22.0949 4.97433 22.2778 4.51389 22.2778C4.05344 22.2778 3.61185 22.0949 3.28627 21.7693C2.96069 21.4437 2.77777 21.0021 2.77777 20.5417V18.0556H4.99305V16.6667H1.38889V20.4861C1.38889 21.3149 1.71813 22.1098 2.30418 22.6958C2.89023 23.2819 3.68508 23.6111 4.51389 23.6111H17.7639C18.5927 23.6111 19.3875 23.2819 19.9736 22.6958C20.5596 22.1098 20.8889 21.3149 20.8889 20.4861V9.11805H19.5V20.5139C19.5 20.9743 19.3171 21.4159 18.9915 21.7415C18.6659 22.0671 18.2243 22.25 17.7639 22.25H7.11111C7.45602 21.7368 7.6398 21.1322 7.63889 20.5139V4.54166C7.63889 4.08122 7.8218 3.63963 8.14738 3.31405C8.47296 2.98847 8.91455 2.80555 9.375 2.80555C9.83544 2.80555 10.277 2.98847 10.6026 3.31405C10.9282 3.63963 11.1111 4.08122 11.1111 4.54166V7.69444L23.6111 7.72222ZM20.4861 2.86111C20.9418 2.86105 21.3792 3.04014 21.704 3.35974C22.0288 3.67934 22.2149 4.11383 22.2222 4.56944V6.33333H12.5V4.56944C12.5005 3.95115 12.3168 3.34673 11.9722 2.83333L20.4861 2.86111Z" fill="#939393"/>
</svg>
