<svg width="25" height="25" viewBox="0 0 25 25" fill="none" xmlns="http://www.w3.org/2000/svg">
<path d="M5.46875 7.8125C5.26155 7.8125 5.06284 7.89481 4.91632 8.04132C4.76981 8.18784 4.6875 8.38655 4.6875 8.59375C4.6875 8.80095 4.76981 8.99966 4.91632 9.14618C5.06284 9.29269 5.26155 9.375 5.46875 9.375H16.4062C16.6135 9.375 16.8122 9.29269 16.9587 9.14618C17.1052 8.99966 17.1875 8.80095 17.1875 8.59375C17.1875 8.38655 17.1052 8.18784 16.9587 8.04132C16.8122 7.89481 16.6135 7.8125 16.4062 7.8125H5.46875ZM5.46875 10.9375C5.26155 10.9375 5.06284 11.0198 4.91632 11.1663C4.76981 11.3128 4.6875 11.5115 4.6875 11.7188V14.8438C4.6875 15.051 4.76981 15.2497 4.91632 15.3962C5.06284 15.5427 5.26155 15.625 5.46875 15.625H8.59375C8.80095 15.625 8.99966 15.5427 9.14618 15.3962C9.29269 15.2497 9.375 15.051 9.375 14.8438V11.7188C9.375 11.5115 9.29269 11.3128 9.14618 11.1663C8.99966 11.0198 8.80095 10.9375 8.59375 10.9375H5.46875ZM6.25 14.0625V12.5H7.8125V14.0625H6.25ZM11.7188 10.9375C11.5115 10.9375 11.3128 11.0198 11.1663 11.1663C11.0198 11.3128 10.9375 11.5115 10.9375 11.7188C10.9375 11.926 11.0198 12.1247 11.1663 12.2712C11.3128 12.4177 11.5115 12.5 11.7188 12.5H16.4062C16.6135 12.5 16.8122 12.4177 16.9587 12.2712C17.1052 12.1247 17.1875 11.926 17.1875 11.7188C17.1875 11.5115 17.1052 11.3128 16.9587 11.1663C16.8122 11.0198 16.6135 10.9375 16.4062 10.9375H11.7188ZM11.7188 14.0625C11.5115 14.0625 11.3128 14.1448 11.1663 14.2913C11.0198 14.4378 10.9375 14.6365 10.9375 14.8438C10.9375 15.051 11.0198 15.2497 11.1663 15.3962C11.3128 15.5427 11.5115 15.625 11.7188 15.625H16.4062C16.6135 15.625 16.8122 15.5427 16.9587 15.3962C17.1052 15.2497 17.1875 15.051 17.1875 14.8438C17.1875 14.6365 17.1052 14.4378 16.9587 14.2913C16.8122 14.1448 16.6135 14.0625 16.4062 14.0625H11.7188ZM1.5625 6.25C1.5625 5.4212 1.89174 4.62634 2.47779 4.04029C3.06384 3.45424 3.8587 3.125 4.6875 3.125H17.1875C18.0163 3.125 18.8112 3.45424 19.3972 4.04029C19.9833 4.62634 20.3125 5.4212 20.3125 6.25C21.1413 6.25 21.9362 6.57924 22.5222 7.16529C23.1083 7.75134 23.4375 8.5462 23.4375 9.375V16.4062C23.4375 17.4423 23.0259 18.4358 22.2934 19.1684C21.5608 19.9009 20.5673 20.3125 19.5312 20.3125H5.46875C4.43275 20.3125 3.43918 19.9009 2.70661 19.1684C1.97405 18.4358 1.5625 17.4423 1.5625 16.4062V6.25ZM19.5312 16.4062C19.324 16.4062 19.1253 16.3239 18.9788 16.1774C18.8323 16.0309 18.75 15.8322 18.75 15.625V6.25C18.75 5.8356 18.5854 5.43817 18.2924 5.14515C17.9993 4.85212 17.6019 4.6875 17.1875 4.6875H4.6875C4.2731 4.6875 3.87567 4.85212 3.58265 5.14515C3.28962 5.43817 3.125 5.8356 3.125 6.25V16.4062C3.125 17.0279 3.37193 17.624 3.81147 18.0635C4.25101 18.5031 4.84715 18.75 5.46875 18.75H19.5312C20.1529 18.75 20.749 18.5031 21.1885 18.0635C21.6281 17.624 21.875 17.0279 21.875 16.4062V9.375C21.875 8.9606 21.7104 8.56317 21.4174 8.27015C21.1243 7.97712 20.7269 7.8125 20.3125 7.8125V15.625C20.3125 15.8322 20.2302 16.0309 20.0837 16.1774C19.9372 16.3239 19.7385 16.4062 19.5312 16.4062Z" fill="#939393"/>
</svg>
