<svg width="25" height="25" viewBox="0 0 25 25" fill="none" xmlns="http://www.w3.org/2000/svg">
<path d="M10.1562 1.5625V4.6875L8.59375 5.46875L6.25 3.125L3.125 6.25L5.46875 8.59375L4.6875 10.1562H1.5625V14.8438H4.6875L5.46875 16.4062L3.125 18.75L6.25 21.875L8.59375 19.5312L10.1562 20.3125V23.4375H14.8438V20.3125L16.4062 19.5312L18.75 21.875L21.875 18.75L19.5312 16.4062L20.3125 14.8438H23.4375V10.1562H20.3125L19.5312 8.59375L21.875 6.25L18.75 3.125L16.4062 5.46875L14.8438 4.6875V1.5625H10.1562Z" stroke="#939393" stroke-width="1.3125" stroke-linecap="round" stroke-linejoin="round"/>
<path d="M12.5 15.625C14.2259 15.625 15.625 14.2259 15.625 12.5C15.625 10.7741 14.2259 9.375 12.5 9.375C10.7741 9.375 9.375 10.7741 9.375 12.5C9.375 14.2259 10.7741 15.625 12.5 15.625Z" stroke="#939393" stroke-width="1.3125" stroke-linecap="round" stroke-linejoin="round"/>
</svg>
