<svg width="25" height="25" viewBox="0 0 25 25" fill="none" xmlns="http://www.w3.org/2000/svg">
<path d="M13.2396 2.38542C13.1427 2.28779 13.0275 2.2103 12.9006 2.15741C12.7736 2.10453 12.6375 2.0773 12.5 2.0773C12.3625 2.0773 12.2263 2.10453 12.0994 2.15741C11.9724 2.2103 11.8572 2.28779 11.7604 2.38542L2.38539 11.7604C2.28776 11.8573 2.21027 11.9725 2.15738 12.0994C2.1045 12.2263 2.07727 12.3625 2.07727 12.5C2.07727 12.6375 2.1045 12.7737 2.15738 12.9006C2.21027 13.0275 2.28776 13.1428 2.38539 13.2396C2.48273 13.3361 2.59816 13.4125 2.72507 13.4643C2.85199 13.5162 2.98789 13.5425 3.12498 13.5417H4.16664V20.8333C4.16664 21.3859 4.38614 21.9158 4.77684 22.3065C5.16754 22.6972 5.69744 22.9167 6.24998 22.9167H18.75C19.3025 22.9167 19.8324 22.6972 20.2231 22.3065C20.6138 21.9158 20.8333 21.3859 20.8333 20.8333V13.5417H21.875C22.1512 13.5417 22.4162 13.4319 22.6115 13.2366C22.8069 13.0412 22.9166 12.7763 22.9166 12.5C22.9174 12.3629 22.8912 12.227 22.8393 12.1001C22.7875 11.9732 22.7111 11.8578 22.6146 11.7604L13.2396 2.38542ZM6.24998 20.8333V10.8438L12.5 4.59376L18.75 10.8438V20.8333H6.24998Z" fill="#939393"/>
</svg>
