<svg width="31" height="31" viewBox="0 0 31 31" fill="none" xmlns="http://www.w3.org/2000/svg">
<path fill-rule="evenodd" clip-rule="evenodd" d="M15.5 27.125C21.9202 27.125 27.125 21.9202 27.125 15.5C27.125 9.07977 21.9202 3.87499 15.5 3.87499C9.07975 3.87499 3.87498 9.07977 3.87498 15.5C3.87498 21.9202 9.07975 27.125 15.5 27.125ZM15.5 28.4167C22.6339 28.4167 28.4166 22.6339 28.4166 15.5C28.4166 8.36612 22.6339 2.58333 15.5 2.58333C8.3661 2.58333 2.58331 8.36612 2.58331 15.5C2.58331 22.6339 8.3661 28.4167 15.5 28.4167Z" fill="black"/>
<path d="M7.75 23.011C7.75 22.3439 8.24858 21.7801 8.9125 21.7064C13.8951 21.1549 17.1275 21.2046 22.0991 21.7187C22.3474 21.7448 22.5827 21.8426 22.7763 22.0002C22.9699 22.1578 23.1134 22.3684 23.1893 22.6062C23.2652 22.844 23.2702 23.0988 23.2036 23.3394C23.1371 23.58 23.002 23.796 22.8147 23.9611C16.9473 29.0754 13.5941 29.005 8.16333 23.9662C7.89854 23.7208 7.75 23.3721 7.75 23.0117V23.011Z" fill="black"/>
<path fill-rule="evenodd" clip-rule="evenodd" d="M22.0326 22.3607C17.1003 21.8505 13.9144 21.8027 8.98286 22.3484C8.82052 22.3673 8.67087 22.4455 8.56255 22.5678C8.45423 22.6902 8.39486 22.8483 8.3958 23.0117C8.3958 23.1964 8.47265 23.3714 8.60246 23.4928C11.2943 25.9896 13.3338 27.1179 15.3275 27.125C17.3283 27.1321 19.4776 26.0129 22.3904 23.4747C22.4829 23.3924 22.5495 23.2849 22.5821 23.1654C22.6147 23.0459 22.6119 22.9195 22.574 22.8015C22.5361 22.6836 22.4647 22.5792 22.3686 22.5011C22.2725 22.4229 22.1558 22.3744 22.0326 22.3613V22.3607ZM8.84142 21.0645C13.8763 20.5071 17.1559 20.5575 22.1663 21.0761C22.5397 21.1151 22.8938 21.2621 23.185 21.4992C23.4762 21.7363 23.6919 22.0532 23.8058 22.411C23.9197 22.7688 23.9269 23.1521 23.8263 23.5139C23.7257 23.8757 23.5219 24.2003 23.2396 24.448C20.2849 27.0236 17.8243 28.4263 15.3236 28.4167C12.8159 28.4076 10.4638 26.981 7.72478 24.4396C7.52867 24.257 7.37234 24.0358 7.26555 23.79C7.15876 23.5442 7.10381 23.279 7.10413 23.011C7.10319 22.5295 7.27993 22.0646 7.60049 21.7053C7.92106 21.346 8.36292 21.1176 8.84142 21.0639V21.0645Z" fill="black"/>
<path d="M20.6666 12.9167C20.6666 14.287 20.1223 15.6011 19.1534 16.5701C18.1844 17.539 16.8703 18.0833 15.5 18.0833C14.1297 18.0833 12.8155 17.539 11.8466 16.5701C10.8777 15.6011 10.3333 14.287 10.3333 12.9167C10.3333 11.5464 10.8777 10.2322 11.8466 9.26328C12.8155 8.29434 14.1297 7.75 15.5 7.75C16.8703 7.75 18.1844 8.29434 19.1534 9.26328C20.1223 10.2322 20.6666 11.5464 20.6666 12.9167V12.9167Z" fill="black"/>
<path fill-rule="evenodd" clip-rule="evenodd" d="M15.5 16.7917C16.5277 16.7917 17.5133 16.3834 18.24 15.6567C18.9667 14.93 19.375 13.9444 19.375 12.9167C19.375 11.889 18.9667 10.9033 18.24 10.1766C17.5133 9.44992 16.5277 9.04167 15.5 9.04167C14.4723 9.04167 13.4866 9.44992 12.7599 10.1766C12.0332 10.9033 11.625 11.889 11.625 12.9167C11.625 13.9444 12.0332 14.93 12.7599 15.6567C13.4866 16.3834 14.4723 16.7917 15.5 16.7917V16.7917ZM15.5 18.0833C16.8703 18.0833 18.1844 17.539 19.1534 16.5701C20.1223 15.6011 20.6666 14.287 20.6666 12.9167C20.6666 11.5464 20.1223 10.2322 19.1534 9.26328C18.1844 8.29434 16.8703 7.75 15.5 7.75C14.1297 7.75 12.8155 8.29434 11.8466 9.26328C10.8777 10.2322 10.3333 11.5464 10.3333 12.9167C10.3333 14.287 10.8777 15.6011 11.8466 16.5701C12.8155 17.539 14.1297 18.0833 15.5 18.0833V18.0833Z" fill="black"/>
</svg>
