<svg width="416" height="24" viewBox="0 0 416 24" fill="none" xmlns="http://www.w3.org/2000/svg">
<path d="M6.14 19.24C5.11333 19.24 4.20667 19.0667 3.42 18.72C2.63333 18.36 2.01333 17.8533 1.56 17.2C1.10667 16.5333 0.873333 15.7267 0.86 14.78H3.56C3.58667 15.4333 3.82 15.9867 4.26 16.44C4.71333 16.88 5.33333 17.1 6.12 17.1C6.8 17.1 7.34 16.94 7.74 16.62C8.14 16.2867 8.34 15.8467 8.34 15.3C8.34 14.7267 8.16 14.28 7.8 13.96C7.45333 13.64 6.98667 13.38 6.4 13.18C5.81333 12.98 5.18667 12.7667 4.52 12.54C3.44 12.1667 2.61333 11.6867 2.04 11.1C1.48 10.5133 1.2 9.73333 1.2 8.76C1.18667 7.93333 1.38 7.22667 1.78 6.64C2.19333 6.04 2.75333 5.58 3.46 5.26C4.16667 4.92667 4.98 4.76 5.9 4.76C6.83333 4.76 7.65333 4.92667 8.36 5.26C9.08 5.59333 9.64 6.06 10.04 6.66C10.4533 7.26 10.6733 7.97333 10.7 8.8H7.96C7.94667 8.30667 7.75333 7.87333 7.38 7.5C7.02 7.11333 6.51333 6.92 5.86 6.92C5.3 6.90667 4.82667 7.04667 4.44 7.34C4.06667 7.62 3.88 8.03333 3.88 8.58C3.88 9.04667 4.02667 9.42 4.32 9.7C4.61333 9.96667 5.01333 10.1933 5.52 10.38C6.02667 10.5667 6.60667 10.7667 7.26 10.98C7.95333 11.22 8.58667 11.5 9.16 11.82C9.73333 12.14 10.1933 12.5667 10.54 13.1C10.8867 13.62 11.06 14.2933 11.06 15.12C11.06 15.8533 10.8733 16.5333 10.5 17.16C10.1267 17.7867 9.57333 18.2933 8.84 18.68C8.10667 19.0533 7.20667 19.24 6.14 19.24ZM13.4736 23.4L15.7736 18.34H15.1736L11.3136 9.08H14.0936L16.8736 16.06L19.7736 9.08H22.4936L16.1936 23.4H13.4736ZM26.7789 19.24C25.8989 19.24 25.1256 19.1 24.4589 18.82C23.7922 18.5267 23.2589 18.1267 22.8589 17.62C22.4589 17.1133 22.2189 16.5267 22.1389 15.86H24.7189C24.7989 16.2467 25.0122 16.58 25.3589 16.86C25.7189 17.1267 26.1789 17.26 26.7389 17.26C27.2989 17.26 27.7056 17.1467 27.9589 16.92C28.2256 16.6933 28.3589 16.4333 28.3589 16.14C28.3589 15.7133 28.1722 15.4267 27.7989 15.28C27.4256 15.12 26.9056 14.9667 26.2389 14.82C25.8122 14.7267 25.3789 14.6133 24.9389 14.48C24.4989 14.3467 24.0922 14.18 23.7189 13.98C23.3589 13.7667 23.0656 13.5 22.8389 13.18C22.6122 12.8467 22.4989 12.44 22.4989 11.96C22.4989 11.08 22.8456 10.34 23.5389 9.74C24.2456 9.14 25.2322 8.84 26.4989 8.84C27.6722 8.84 28.6056 9.11333 29.2989 9.66C30.0056 10.2067 30.4256 10.96 30.5589 11.92H28.1389C27.9922 11.1867 27.4389 10.82 26.4789 10.82C25.9989 10.82 25.6256 10.9133 25.3589 11.1C25.1056 11.2867 24.9789 11.52 24.9789 11.8C24.9789 12.0933 25.1722 12.3267 25.5589 12.5C25.9456 12.6733 26.4589 12.8333 27.0989 12.98C27.7922 13.14 28.4256 13.32 28.9989 13.52C29.5856 13.7067 30.0522 13.9933 30.3989 14.38C30.7456 14.7533 30.9189 15.2933 30.9189 16C30.9322 16.6133 30.7722 17.1667 30.4389 17.66C30.1056 18.1533 29.6256 18.54 28.9989 18.82C28.3722 19.1 27.6322 19.24 26.7789 19.24ZM36.2942 19C35.2542 19 34.4209 18.7467 33.7942 18.24C33.1676 17.7333 32.8542 16.8333 32.8542 15.54V11.22H31.1542V9.08H32.8542L33.1542 6.42H35.4142V9.08H38.0942V11.22H35.4142V15.56C35.4142 16.04 35.5142 16.3733 35.7142 16.56C35.9276 16.7333 36.2876 16.82 36.7942 16.82H38.0342V19H36.2942ZM43.8583 19.24C42.8583 19.24 41.9716 19.0267 41.1983 18.6C40.4249 18.1733 39.8183 17.5733 39.3783 16.8C38.9383 16.0267 38.7183 15.1333 38.7183 14.12C38.7183 13.0933 38.9316 12.18 39.3583 11.38C39.7983 10.58 40.3983 9.96 41.1583 9.52C41.9316 9.06667 42.8383 8.84 43.8783 8.84C44.8516 8.84 45.7116 9.05333 46.4583 9.48C47.2049 9.90667 47.7849 10.4933 48.1983 11.24C48.6249 11.9733 48.8383 12.7933 48.8383 13.7C48.8383 13.8467 48.8316 14 48.8183 14.16C48.8183 14.32 48.8116 14.4867 48.7983 14.66H41.2583C41.3116 15.4333 41.5783 16.04 42.0583 16.48C42.5516 16.92 43.1449 17.14 43.8383 17.14C44.3583 17.14 44.7916 17.0267 45.1383 16.8C45.4983 16.56 45.7649 16.2533 45.9383 15.88H48.5383C48.3516 16.5067 48.0383 17.08 47.5983 17.6C47.1716 18.1067 46.6383 18.5067 45.9983 18.8C45.3716 19.0933 44.6583 19.24 43.8583 19.24ZM43.8783 10.92C43.2516 10.92 42.6983 11.1 42.2183 11.46C41.7383 11.8067 41.4316 12.34 41.2983 13.06H46.2383C46.1983 12.4067 45.9583 11.8867 45.5183 11.5C45.0783 11.1133 44.5316 10.92 43.8783 10.92ZM49.9914 19V9.08H52.2514L52.4714 10.42C52.7914 9.94 53.2114 9.56 53.7314 9.28C54.2647 8.98667 54.8781 8.84 55.5714 8.84C57.1047 8.84 58.1914 9.43333 58.8314 10.62C59.1914 10.0733 59.6714 9.64 60.2714 9.32C60.8847 9 61.5514 8.84 62.2714 8.84C63.5647 8.84 64.5581 9.22667 65.2514 10C65.9447 10.7733 66.2914 11.9067 66.2914 13.4V19H63.7314V13.64C63.7314 12.7867 63.5647 12.1333 63.2314 11.68C62.9114 11.2267 62.4114 11 61.7314 11C61.0381 11 60.4781 11.2533 60.0514 11.76C59.6381 12.2667 59.4314 12.9733 59.4314 13.88V19H56.8714V13.64C56.8714 12.7867 56.7047 12.1333 56.3714 11.68C56.0381 11.2267 55.5247 11 54.8314 11C54.1514 11 53.5981 11.2533 53.1714 11.76C52.7581 12.2667 52.5514 12.9733 52.5514 13.88V19H49.9914Z" fill="#2E3A59"/>
</svg>
