<svg width="416" height="24" viewBox="0 0 416 24" fill="none" xmlns="http://www.w3.org/2000/svg">
<path d="M1.36 19V5H3.92L10.5 14.86V5H13.06V19H10.5L3.92 9.16V19H1.36ZM19.4741 19.24C18.5141 19.24 17.6474 19.02 16.8741 18.58C16.1141 18.14 15.5074 17.5333 15.0541 16.76C14.6141 15.9733 14.3941 15.0667 14.3941 14.04C14.3941 13.0133 14.6207 12.1133 15.0741 11.34C15.5274 10.5533 16.1341 9.94 16.8941 9.5C17.6674 9.06 18.5341 8.84 19.4941 8.84C20.4407 8.84 21.2941 9.06 22.0541 9.5C22.8274 9.94 23.4341 10.5533 23.8741 11.34C24.3274 12.1133 24.5541 13.0133 24.5541 14.04C24.5541 15.0667 24.3274 15.9733 23.8741 16.76C23.4341 17.5333 22.8274 18.14 22.0541 18.58C21.2807 19.02 20.4207 19.24 19.4741 19.24ZM19.4741 17.02C20.1407 17.02 20.7207 16.7733 21.2141 16.28C21.7074 15.7733 21.9541 15.0267 21.9541 14.04C21.9541 13.0533 21.7074 12.3133 21.2141 11.82C20.7207 11.3133 20.1474 11.06 19.4941 11.06C18.8141 11.06 18.2274 11.3133 17.7341 11.82C17.2541 12.3133 17.0141 13.0533 17.0141 14.04C17.0141 15.0267 17.2541 15.7733 17.7341 16.28C18.2274 16.7733 18.8074 17.02 19.4741 17.02ZM29.8723 19C28.8323 19 27.999 18.7467 27.3723 18.24C26.7457 17.7333 26.4323 16.8333 26.4323 15.54V11.22H24.7323V9.08H26.4323L26.7323 6.42H28.9923V9.08H31.6723V11.22H28.9923V15.56C28.9923 16.04 29.0923 16.3733 29.2923 16.56C29.5057 16.7333 29.8657 16.82 30.3723 16.82H31.6123V19H29.8723ZM34.2503 7.54C33.7836 7.54 33.397 7.4 33.0903 7.12C32.797 6.84 32.6503 6.48667 32.6503 6.06C32.6503 5.63333 32.797 5.28667 33.0903 5.02C33.397 4.74 33.7836 4.6 34.2503 4.6C34.717 4.6 35.097 4.74 35.3903 5.02C35.697 5.28667 35.8503 5.63333 35.8503 6.06C35.8503 6.48667 35.697 6.84 35.3903 7.12C35.097 7.4 34.717 7.54 34.2503 7.54ZM32.9703 19V9.08H35.5303V19H32.9703ZM37.6623 19V11.22H36.3023V9.08H37.6623V7.92C37.6623 6.72 37.9623 5.86667 38.5623 5.36C39.1757 4.85333 40.0023 4.6 41.0423 4.6H42.1423V6.78H41.4423C41.0023 6.78 40.689 6.86667 40.5023 7.04C40.3157 7.21333 40.2223 7.50667 40.2223 7.92V9.08H46.6223V19H44.0623V11.22H40.2223V19H37.6623ZM45.3623 7.66C44.8957 7.66 44.509 7.52 44.2023 7.24C43.909 6.96 43.7623 6.60667 43.7623 6.18C43.7623 5.75333 43.909 5.40667 44.2023 5.14C44.509 4.86 44.8957 4.72 45.3623 4.72C45.829 4.72 46.209 4.86 46.5023 5.14C46.809 5.40667 46.9623 5.75333 46.9623 6.18C46.9623 6.60667 46.809 6.96 46.5023 7.24C46.209 7.52 45.829 7.66 45.3623 7.66ZM53.1913 19.24C52.1779 19.24 51.2846 19.02 50.5113 18.58C49.7379 18.14 49.1246 17.5267 48.6713 16.74C48.2313 15.9533 48.0113 15.0533 48.0113 14.04C48.0113 13.0267 48.2313 12.1267 48.6713 11.34C49.1246 10.5533 49.7379 9.94 50.5113 9.5C51.2846 9.06 52.1779 8.84 53.1913 8.84C54.4579 8.84 55.5246 9.17333 56.3913 9.84C57.2579 10.4933 57.8113 11.4 58.0512 12.56H55.3513C55.2179 12.08 54.9513 11.7067 54.5513 11.44C54.1646 11.16 53.7046 11.02 53.1713 11.02C52.4646 11.02 51.8646 11.2867 51.3713 11.82C50.8779 12.3533 50.6313 13.0933 50.6313 14.04C50.6313 14.9867 50.8779 15.7267 51.3713 16.26C51.8646 16.7933 52.4646 17.06 53.1713 17.06C53.7046 17.06 54.1646 16.9267 54.5513 16.66C54.9513 16.3933 55.2179 16.0133 55.3513 15.52H58.0512C57.8113 16.64 57.2579 17.54 56.3913 18.22C55.5246 18.9 54.4579 19.24 53.1913 19.24ZM62.7434 19.24C61.8901 19.24 61.1901 19.1067 60.6434 18.84C60.0968 18.56 59.6901 18.1933 59.4234 17.74C59.1568 17.2867 59.0234 16.7867 59.0234 16.24C59.0234 15.32 59.3834 14.5733 60.1034 14C60.8234 13.4267 61.9034 13.14 63.3434 13.14H65.8634V12.9C65.8634 12.22 65.6701 11.72 65.2834 11.4C64.8968 11.08 64.4168 10.92 63.8434 10.92C63.3234 10.92 62.8701 11.0467 62.4834 11.3C62.0968 11.54 61.8568 11.9 61.7634 12.38H59.2634C59.3301 11.66 59.5701 11.0333 59.9834 10.5C60.4101 9.96667 60.9568 9.56 61.6234 9.28C62.2901 8.98667 63.0368 8.84 63.8634 8.84C65.2768 8.84 66.3901 9.19333 67.2034 9.9C68.0168 10.6067 68.4234 11.6067 68.4234 12.9V19H66.2434L66.0034 17.4C65.7101 17.9333 65.2968 18.3733 64.7634 18.72C64.2434 19.0667 63.5701 19.24 62.7434 19.24ZM63.3234 17.24C64.0568 17.24 64.6234 17 65.0234 16.52C65.4368 16.04 65.6968 15.4467 65.8034 14.74H63.6234C62.9434 14.74 62.4568 14.8667 62.1634 15.12C61.8701 15.36 61.7234 15.66 61.7234 16.02C61.7234 16.4067 61.8701 16.7067 62.1634 16.92C62.4568 17.1333 62.8434 17.24 63.3234 17.24ZM74.1497 19C73.1097 19 72.2764 18.7467 71.6497 18.24C71.023 17.7333 70.7097 16.8333 70.7097 15.54V11.22H69.0097V9.08H70.7097L71.0097 6.42H73.2697V9.08H75.9497V11.22H73.2697V15.56C73.2697 16.04 73.3697 16.3733 73.5697 16.56C73.783 16.7333 74.143 16.82 74.6497 16.82H75.8897V19H74.1497ZM78.5277 7.54C78.061 7.54 77.6743 7.4 77.3677 7.12C77.0743 6.84 76.9277 6.48667 76.9277 6.06C76.9277 5.63333 77.0743 5.28667 77.3677 5.02C77.6743 4.74 78.061 4.6 78.5277 4.6C78.9943 4.6 79.3743 4.74 79.6677 5.02C79.9743 5.28667 80.1277 5.63333 80.1277 6.06C80.1277 6.48667 79.9743 6.84 79.6677 7.12C79.3743 7.4 78.9943 7.54 78.5277 7.54ZM77.2477 19V9.08H79.8077V19H77.2477ZM86.2397 19.24C85.2797 19.24 84.413 19.02 83.6397 18.58C82.8797 18.14 82.273 17.5333 81.8197 16.76C81.3797 15.9733 81.1597 15.0667 81.1597 14.04C81.1597 13.0133 81.3864 12.1133 81.8397 11.34C82.293 10.5533 82.8997 9.94 83.6597 9.5C84.433 9.06 85.2997 8.84 86.2597 8.84C87.2064 8.84 88.0597 9.06 88.8197 9.5C89.593 9.94 90.1997 10.5533 90.6397 11.34C91.093 12.1133 91.3197 13.0133 91.3197 14.04C91.3197 15.0667 91.093 15.9733 90.6397 16.76C90.1997 17.5333 89.593 18.14 88.8197 18.58C88.0464 19.02 87.1864 19.24 86.2397 19.24ZM86.2397 17.02C86.9064 17.02 87.4864 16.7733 87.9797 16.28C88.473 15.7733 88.7197 15.0267 88.7197 14.04C88.7197 13.0533 88.473 12.3133 87.9797 11.82C87.4864 11.3133 86.913 11.06 86.2597 11.06C85.5797 11.06 84.993 11.3133 84.4997 11.82C84.0197 12.3133 83.7797 13.0533 83.7797 14.04C83.7797 15.0267 84.0197 15.7733 84.4997 16.28C84.993 16.7733 85.573 17.02 86.2397 17.02ZM92.6086 19V9.08H94.8686L95.0686 10.76C95.3753 10.1733 95.8153 9.70667 96.3886 9.36C96.9753 9.01333 97.6619 8.84 98.4486 8.84C99.6753 8.84 100.629 9.22667 101.309 10C101.989 10.7733 102.329 11.9067 102.329 13.4V19H99.7686V13.64C99.7686 12.7867 99.5953 12.1333 99.2486 11.68C98.9019 11.2267 98.3619 11 97.6286 11C96.9086 11 96.3153 11.2533 95.8486 11.76C95.3953 12.2667 95.1686 12.9733 95.1686 13.88V19H92.6086Z" fill="#2E3A59"/>
</svg>
