<svg width="24" height="24" viewBox="0 0 24 24" fill="none" xmlns="http://www.w3.org/2000/svg">
<g clip-path="url(#clip0_1393_1033)">
<path d="M18.97 21.971L17 20H6.00004C2.87441 20.0019 0.270931 17.6038 0.0164008 14.4886C-0.238129 11.3734 1.94156 8.58454 5.02604 8.079L5.04504 8.045L2.00004 5L3.41504 3.586L20.385 20.556L18.971 21.97L18.97 21.971ZM6.81304 9.814L5.34804 10.053C3.29216 10.391 1.84005 12.2506 2.01042 14.3271C2.18078 16.4036 3.91656 18.0016 6.00004 18H15L6.81304 9.814ZM21.8 19.144L20.341 17.686C21.5098 17.1027 22.1668 15.8301 21.9655 14.5394C21.7643 13.2488 20.751 12.2367 19.46 12.037L18.144 11.837L17.822 10.546C17.3802 8.77672 16.1577 7.30443 14.4997 6.54492C12.8418 5.78541 10.9285 5.82113 9.30004 6.642L7.82904 5.173C10.0013 3.84531 12.6758 3.63082 15.0319 4.59533C17.388 5.55985 19.1444 7.58819 19.762 10.058C21.7955 10.3711 23.4296 11.8978 23.8799 13.9053C24.3303 15.9129 23.5049 17.9913 21.8 19.143V19.144Z" fill="#2E3A59"/>
</g>
<defs>
<clipPath id="clip0_1393_1033">
<rect width="24" height="24" fill="white"/>
</clipPath>
</defs>
</svg>
