<svg width="24" height="24" viewBox="0 0 24 24" fill="none" xmlns="http://www.w3.org/2000/svg">
<path d="M19.336 18.0211C19.2586 18 19.1649 18.0117 19.0571 18.0515C17.6133 18.7125 16.2094 19.1836 14.8453 19.4625C11.8992 20.0625 9.02815 19.7484 6.2344 18.5226C5.45862 18.1804 4.3805 17.6039 3.00003 16.7883C2.96446 16.7602 2.92106 16.7438 2.87581 16.7414C2.82893 16.739 2.78909 16.7437 2.75159 16.7625C2.71409 16.7812 2.68596 16.8047 2.66487 16.8351C2.64378 16.8656 2.63909 16.9078 2.6555 16.9617C2.66956 17.0133 2.70471 17.0719 2.76331 17.1351C3.00706 17.4211 3.3094 17.7258 3.668 18.0492C4.02659 18.3726 4.50237 18.7383 5.09534 19.1461C5.68831 19.5539 6.3094 19.9172 6.95393 20.2336C7.60081 20.55 8.35081 20.8172 9.20628 21.0328C10.0617 21.2484 10.9172 21.3562 11.7703 21.3562C12.6188 21.3562 13.4438 21.2695 14.243 21.1008C15.0446 20.9297 15.7196 20.7281 16.2703 20.4937C16.8188 20.2617 17.325 20.0015 17.7891 19.7203C18.2532 19.439 18.5953 19.2 18.818 19.0101C19.0407 18.8179 19.2 18.6679 19.2914 18.5554C19.3992 18.4219 19.4532 18.307 19.4532 18.2062C19.4555 18.1008 19.4133 18.0398 19.336 18.0211V18.0211ZM12.361 8.15857C12.0047 8.18904 11.5758 8.25466 11.0719 8.3531C10.568 8.44919 10.1016 8.57107 9.67034 8.71404C9.23909 8.85701 8.79846 9.05623 8.35081 9.30935C7.90081 9.56248 7.51878 9.8531 7.20237 10.1765C6.88596 10.5 6.62815 10.9054 6.42659 11.3953C6.22503 11.8828 6.12425 12.4195 6.12425 13.0054C6.12425 13.6406 6.2344 14.2054 6.4594 14.7047C6.68206 15.2039 6.97971 15.5953 7.35471 15.8859C7.72737 16.1765 8.15159 16.4039 8.62034 16.5703C9.08909 16.7367 9.58596 16.8117 10.1016 16.7906C10.6172 16.7695 11.1211 16.6898 11.611 16.5492C12.0985 16.4109 12.5578 16.1883 12.9844 15.8859C13.411 15.5836 13.7602 15.225 14.0344 14.8148C14.1352 14.9695 14.2242 15.0844 14.3039 15.1594L14.5078 15.3679C14.6438 15.5062 14.8524 15.7101 15.1336 15.9797C15.4125 16.2492 15.6985 16.5117 15.9844 16.7695L18.4313 14.4281L18.2907 14.3133C18.1899 14.2359 18.0703 14.1258 17.9344 13.9781C17.7985 13.8328 17.6625 13.6711 17.5313 13.4976C17.3977 13.3242 17.2828 13.1203 17.1867 12.8906C17.0907 12.6609 17.0414 12.4383 17.0414 12.2226V6.06326C17.0414 5.82654 16.9969 5.57107 16.9078 5.29451C16.8164 5.02029 16.6571 4.72029 16.4227 4.39685C16.1883 4.07341 15.8977 3.78279 15.5508 3.52966C15.2016 3.27654 14.7375 3.06091 14.1539 2.88748C13.5727 2.71404 12.9211 2.62732 12.2039 2.62732C11.4703 2.62732 10.7883 2.71404 10.1508 2.88279C9.51565 3.05388 8.9719 3.28123 8.51721 3.56716C8.06487 3.8531 7.67581 4.18357 7.35237 4.56091C7.02893 4.93826 6.78753 5.33201 6.6305 5.74216C6.47346 6.15232 6.39378 6.56716 6.39378 6.98669L9.56253 7.2656C9.69143 6.88123 9.86487 6.54841 10.0782 6.26248C10.2938 5.97654 10.4977 5.77029 10.6828 5.64138C10.8703 5.51248 11.0719 5.40935 11.2852 5.33201C11.5008 5.25466 11.6461 5.21482 11.7211 5.20544C11.7961 5.19841 11.8547 5.19607 11.8992 5.19607C12.525 5.19607 12.9586 5.38123 13.2024 5.74919C13.3547 5.97185 13.4297 6.30935 13.4297 6.76404V8.0906C13.0735 8.10466 12.7172 8.1281 12.361 8.15857V8.15857ZM13.4321 11.7187C13.4321 12.1078 13.3805 12.4617 13.2797 12.7734C13.0641 13.4554 12.6539 13.8844 12.0516 14.0578C11.5266 14.2125 11.0274 14.1351 10.5539 13.8281C10.05 13.5 9.79925 13.0359 9.79925 12.4383C9.79925 11.9719 9.91643 11.5734 10.1508 11.2406C10.3852 10.9101 10.6969 10.6617 11.0883 10.4976C11.4797 10.3336 11.8617 10.2164 12.2367 10.1484C12.6094 10.0781 13.0102 10.0359 13.4321 10.0219V11.7187V11.7187ZM21.2883 16.8492C21.1875 16.7226 20.9157 16.6406 20.4703 16.5984C20.025 16.5562 19.6383 16.5586 19.3055 16.6078C18.9469 16.65 18.5766 16.7531 18.1969 16.9219C17.8149 17.0883 17.6485 17.2289 17.6907 17.339L17.7071 17.3695L17.7282 17.3859L17.761 17.3906H17.8688C17.8875 17.3906 17.911 17.3883 17.9438 17.3859C17.9766 17.3836 18.0071 17.3789 18.0352 17.3765C18.0633 17.3742 18.1032 17.3695 18.1547 17.3672C18.2039 17.3648 18.2508 17.3578 18.2953 17.3508C18.3024 17.3508 18.3821 17.3437 18.5367 17.3297C18.6914 17.3156 18.8039 17.3062 18.8719 17.2992C18.9399 17.2922 19.0547 17.2851 19.2117 17.2781C19.3688 17.2711 19.4953 17.2711 19.5891 17.2781C19.6828 17.2851 19.7883 17.2945 19.9078 17.3039C20.0274 17.3133 20.1235 17.3344 20.1985 17.3672C20.2735 17.3976 20.3297 17.4375 20.3649 17.4867C20.4867 17.6414 20.4633 17.9836 20.2946 18.5156C20.1258 19.0476 19.9664 19.4719 19.8164 19.7859C19.7508 19.9195 19.7508 20.0015 19.8164 20.0367C19.8821 20.0719 19.9735 20.039 20.0953 19.9429C20.461 19.657 20.7657 19.2258 21.0117 18.6469C21.1547 18.3047 21.2578 17.9484 21.3188 17.5758C21.375 17.2031 21.3657 16.9617 21.2883 16.8492V16.8492Z" fill="#939393"/>
</svg>
