<svg width="24" height="24" viewBox="0 0 24 24" fill="none" xmlns="http://www.w3.org/2000/svg">
<path d="M14.641 22.024C13.4804 22.0201 12.5415 21.0785 12.541 19.918V17.811H14.641C15.8046 17.811 16.748 18.7543 16.748 19.918C16.748 21.0816 15.8046 22.025 14.641 22.025V22.024ZM9.35897 22.024C8.19843 22.0201 7.25952 21.0785 7.25897 19.918V14.644C7.25897 13.8925 7.6599 13.1981 8.31072 12.8223C8.96155 12.4465 9.7634 12.4465 10.4142 12.8223C11.065 13.1981 11.466 13.8925 11.466 14.644V19.918C11.4654 21.0813 10.5222 22.024 9.35897 22.024ZM19.909 16.751H14.641C13.4776 16.751 12.5345 15.8079 12.5345 14.6445C12.5345 13.4811 13.4776 12.538 14.641 12.538H19.909C21.0724 12.538 22.0155 13.4811 22.0155 14.6445C22.0155 15.8079 21.0724 16.751 19.909 16.751ZM4.09197 16.751C2.92859 16.751 1.98547 15.8079 1.98547 14.6445C1.98547 13.4811 2.92859 12.538 4.09197 12.538H6.19197V14.644C6.19197 15.8069 5.24986 16.7499 4.08697 16.751H4.09197ZM19.909 11.462H17.809V9.35598C17.8123 8.19697 18.7539 7.25978 19.913 7.26198C21.072 7.26419 22.0101 8.20496 22.009 9.36398C22.0079 10.523 21.068 11.462 19.909 11.462ZM14.641 11.462C13.4804 11.4581 12.5415 10.5165 12.541 9.35598V4.08198C12.541 3.33047 12.9419 2.63605 13.5927 2.2603C14.2435 1.88454 15.0454 1.88454 15.6962 2.2603C16.347 2.63605 16.748 3.33047 16.748 4.08198V9.35598C16.7474 10.5193 15.8042 11.462 14.641 11.462ZM9.35897 11.462H4.09197C2.92859 11.462 1.98547 10.5189 1.98547 9.35548C1.98547 8.19209 2.92859 7.24898 4.09197 7.24898H9.35897C10.5224 7.24898 11.4655 8.19209 11.4655 9.35548C11.4655 10.5189 10.5224 11.462 9.35897 11.462ZM11.459 6.18899H9.35897C8.50673 6.19141 7.73703 5.67995 7.40911 4.89331C7.08119 4.10667 7.2597 3.19994 7.86133 2.5963C8.46296 1.99267 9.36909 1.81114 10.1568 2.13644C10.9445 2.46174 11.4586 3.22973 11.459 4.08198V6.18798V6.18899Z" fill="#2E3A59"/>
</svg>
