<svg width="24" height="24" viewBox="0 0 24 24" fill="none" xmlns="http://www.w3.org/2000/svg">
<path d="M12.01 22C7.96867 22.0053 4.32327 19.5723 2.77761 15.8383C1.23194 12.1042 2.09128 7.80657 4.95398 4.954C7.47315 2.42574 11.1509 1.43555 14.5989 2.35723C18.0469 3.2789 20.7401 5.97206 21.6618 9.42008C22.5834 12.8681 21.5932 16.5458 19.065 19.065C17.1996 20.9462 14.6592 22.0031 12.01 22ZM10.528 15.272C12.3657 15.2337 14.1771 15.7133 15.755 16.656C15.8523 16.7213 15.9668 16.7561 16.084 16.756C16.2975 16.7506 16.4938 16.6378 16.606 16.456C16.6933 16.2875 16.7084 16.0909 16.648 15.911C16.5969 15.7742 16.4905 15.6653 16.355 15.611C14.5783 14.5542 12.5407 14.0175 10.474 14.062C9.19171 14.0718 7.91439 14.2224 6.66498 14.511C6.33741 14.5983 6.13823 14.9298 6.21498 15.26C6.29232 15.5265 6.52898 15.7155 6.80598 15.732C6.85914 15.7318 6.912 15.7241 6.96298 15.709C8.13132 15.431 9.32708 15.2844 10.528 15.272ZM10.338 12.296C12.5863 12.2695 14.801 12.8429 16.754 13.957C16.8653 14.0379 16.9994 14.0813 17.137 14.081C17.4065 14.0705 17.6547 13.9319 17.805 13.708C17.9224 13.5367 17.959 13.3226 17.905 13.122C17.8684 12.9481 17.7592 12.7982 17.605 12.71C15.3967 11.4347 12.8869 10.7748 10.337 10.799C8.99274 10.7908 7.65455 10.9794 6.36498 11.359C5.96874 11.4894 5.74747 11.9107 5.86498 12.311C5.96307 12.6345 6.26836 12.8499 6.60598 12.834C6.67775 12.8347 6.74932 12.8263 6.81898 12.809C7.95876 12.4587 9.14562 12.2857 10.338 12.296ZM10.527 9.208C13.0909 9.13404 15.631 9.71939 17.904 10.908C18.0572 10.9917 18.2294 11.0348 18.404 11.033C18.7141 11.0395 19.0096 10.9017 19.204 10.66C19.3249 10.4388 19.3564 10.1797 19.292 9.936C19.2317 9.69286 19.074 9.48526 18.856 9.362C16.2927 7.99965 13.4208 7.32309 10.519 7.398C8.91221 7.38147 7.31092 7.58811 5.76098 8.012C5.32561 8.14664 5.05569 8.58113 5.12787 9.03109C5.20006 9.48105 5.59235 9.8093 6.04798 9.801C6.13669 9.80107 6.22494 9.78828 6.30998 9.763C7.68126 9.37421 9.10179 9.18691 10.527 9.207V9.208Z" fill="#2E3A59"/>
</svg>
