<svg width="416" height="24" viewBox="0 0 416 24" fill="none" xmlns="http://www.w3.org/2000/svg">
<path d="M1.36 19V5H4.4L8.86 13.88L13.26 5H16.3V19H13.74V9.34L9.84 17H7.82L3.92 9.34V19H1.36ZM22.7763 19.24C21.7763 19.24 20.8896 19.0267 20.1163 18.6C19.3429 18.1733 18.7363 17.5733 18.2963 16.8C17.8563 16.0267 17.6363 15.1333 17.6363 14.12C17.6363 13.0933 17.8496 12.18 18.2763 11.38C18.7163 10.58 19.3163 9.96 20.0763 9.52C20.8496 9.06667 21.7563 8.84 22.7963 8.84C23.7696 8.84 24.6296 9.05333 25.3763 9.48C26.1229 9.90667 26.7029 10.4933 27.1163 11.24C27.5429 11.9733 27.7563 12.7933 27.7563 13.7C27.7563 13.8467 27.7496 14 27.7363 14.16C27.7363 14.32 27.7296 14.4867 27.7163 14.66H20.1763C20.2296 15.4333 20.4963 16.04 20.9763 16.48C21.4696 16.92 22.0629 17.14 22.7563 17.14C23.2763 17.14 23.7096 17.0267 24.0563 16.8C24.4163 16.56 24.6829 16.2533 24.8563 15.88H27.4563C27.2696 16.5067 26.9563 17.08 26.5163 17.6C26.0896 18.1067 25.5563 18.5067 24.9163 18.8C24.2896 19.0933 23.5763 19.24 22.7763 19.24ZM22.7963 10.92C22.1696 10.92 21.6163 11.1 21.1363 11.46C20.6563 11.8067 20.3496 12.34 20.2163 13.06H25.1563C25.1163 12.4067 24.8763 11.8867 24.4363 11.5C23.9963 11.1133 23.4496 10.92 22.7963 10.92ZM33.4694 19.24C32.536 19.24 31.7027 19.0133 30.9694 18.56C30.236 18.1067 29.656 17.4867 29.2294 16.7C28.8027 15.9133 28.5894 15.02 28.5894 14.02C28.5894 13.02 28.8027 12.1333 29.2294 11.36C29.656 10.5733 30.236 9.96 30.9694 9.52C31.7027 9.06667 32.536 8.84 33.4694 8.84C34.216 8.84 34.8694 8.98 35.4294 9.26C35.9894 9.54 36.4427 9.93333 36.7894 10.44V4.6H39.3494V19H37.0694L36.7894 17.58C36.4694 18.02 36.0427 18.4067 35.5094 18.74C34.9894 19.0733 34.3094 19.24 33.4694 19.24ZM34.0094 17C34.836 17 35.5094 16.7267 36.0294 16.18C36.5627 15.62 36.8294 14.9067 36.8294 14.04C36.8294 13.1733 36.5627 12.4667 36.0294 11.92C35.5094 11.36 34.836 11.08 34.0094 11.08C33.196 11.08 32.5227 11.3533 31.9894 11.9C31.456 12.4467 31.1894 13.1533 31.1894 14.02C31.1894 14.8867 31.456 15.6 31.9894 16.16C32.5227 16.72 33.196 17 34.0094 17ZM42.3363 7.54C41.8696 7.54 41.4829 7.4 41.1763 7.12C40.8829 6.84 40.7363 6.48667 40.7363 6.06C40.7363 5.63333 40.8829 5.28667 41.1763 5.02C41.4829 4.74 41.8696 4.6 42.3363 4.6C42.8029 4.6 43.1829 4.74 43.4763 5.02C43.7829 5.28667 43.9363 5.63333 43.9363 6.06C43.9363 6.48667 43.7829 6.84 43.4763 7.12C43.1829 7.4 42.8029 7.54 42.3363 7.54ZM41.0563 19V9.08H43.6163V19H41.0563ZM48.7083 19.24C47.8549 19.24 47.1549 19.1067 46.6083 18.84C46.0616 18.56 45.6549 18.1933 45.3883 17.74C45.1216 17.2867 44.9883 16.7867 44.9883 16.24C44.9883 15.32 45.3483 14.5733 46.0683 14C46.7883 13.4267 47.8683 13.14 49.3083 13.14H51.8283V12.9C51.8283 12.22 51.6349 11.72 51.2483 11.4C50.8616 11.08 50.3816 10.92 49.8083 10.92C49.2883 10.92 48.8349 11.0467 48.4483 11.3C48.0616 11.54 47.8216 11.9 47.7283 12.38H45.2283C45.2949 11.66 45.5349 11.0333 45.9483 10.5C46.3749 9.96667 46.9216 9.56 47.5883 9.28C48.2549 8.98667 49.0016 8.84 49.8283 8.84C51.2416 8.84 52.3549 9.19333 53.1683 9.9C53.9816 10.6067 54.3883 11.6067 54.3883 12.9V19H52.2083L51.9683 17.4C51.6749 17.9333 51.2616 18.3733 50.7283 18.72C50.2083 19.0667 49.5349 19.24 48.7083 19.24ZM49.2883 17.24C50.0216 17.24 50.5883 17 50.9883 16.52C51.4016 16.04 51.6616 15.4467 51.7683 14.74H49.5883C48.9083 14.74 48.4216 14.8667 48.1283 15.12C47.8349 15.36 47.6883 15.66 47.6883 16.02C47.6883 16.4067 47.8349 16.7067 48.1283 16.92C48.4216 17.1333 48.8083 17.24 49.2883 17.24Z" fill="#2E3A59"/>
</svg>
