<svg width="416" height="24" viewBox="0 0 416 24" fill="none" xmlns="http://www.w3.org/2000/svg">
<path d="M7.7 19.24C6.28667 19.24 5.07333 18.94 4.06 18.34C3.04667 17.7267 2.26667 16.88 1.72 15.8C1.17333 14.7067 0.9 13.4467 0.9 12.02C0.9 10.5933 1.17333 9.33333 1.72 8.24C2.26667 7.14667 3.04667 6.29333 4.06 5.68C5.07333 5.06667 6.28667 4.76 7.7 4.76C9.38 4.76 10.7533 5.18 11.82 6.02C12.9 6.84667 13.5733 8.01333 13.84 9.52H11.02C10.8467 8.76 10.4733 8.16667 9.9 7.74C9.34 7.3 8.59333 7.08 7.66 7.08C6.36667 7.08 5.35333 7.52 4.62 8.4C3.88667 9.28 3.52 10.4867 3.52 12.02C3.52 13.5533 3.88667 14.76 4.62 15.64C5.35333 16.5067 6.36667 16.94 7.66 16.94C8.59333 16.94 9.34 16.74 9.9 16.34C10.4733 15.9267 10.8467 15.36 11.02 14.64H13.84C13.5733 16.08 12.9 17.2067 11.82 18.02C10.7533 18.8333 9.38 19.24 7.7 19.24ZM18.4661 19.24C17.6128 19.24 16.9128 19.1067 16.3661 18.84C15.8194 18.56 15.4128 18.1933 15.1461 17.74C14.8794 17.2867 14.7461 16.7867 14.7461 16.24C14.7461 15.32 15.1061 14.5733 15.8261 14C16.5461 13.4267 17.6261 13.14 19.0661 13.14H21.5861V12.9C21.5861 12.22 21.3928 11.72 21.0061 11.4C20.6194 11.08 20.1394 10.92 19.5661 10.92C19.0461 10.92 18.5928 11.0467 18.2061 11.3C17.8194 11.54 17.5794 11.9 17.4861 12.38H14.9861C15.0528 11.66 15.2928 11.0333 15.7061 10.5C16.1328 9.96667 16.6794 9.56 17.3461 9.28C18.0128 8.98667 18.7594 8.84 19.5861 8.84C20.9994 8.84 22.1128 9.19333 22.9261 9.9C23.7394 10.6067 24.1461 11.6067 24.1461 12.9V19H21.9661L21.7261 17.4C21.4328 17.9333 21.0194 18.3733 20.4861 18.72C19.9661 19.0667 19.2928 19.24 18.4661 19.24ZM19.0461 17.24C19.7794 17.24 20.3461 17 20.7461 16.52C21.1594 16.04 21.4194 15.4467 21.5261 14.74H19.3461C18.6661 14.74 18.1794 14.8667 17.8861 15.12C17.5928 15.36 17.4461 15.66 17.4461 16.02C17.4461 16.4067 17.5928 16.7067 17.8861 16.92C18.1794 17.1333 18.5661 17.24 19.0461 17.24ZM25.5891 19V4.6H28.1491V19H25.5891ZM34.5848 19.24C33.5848 19.24 32.6982 19.0267 31.9248 18.6C31.1515 18.1733 30.5448 17.5733 30.1048 16.8C29.6648 16.0267 29.4448 15.1333 29.4448 14.12C29.4448 13.0933 29.6582 12.18 30.0848 11.38C30.5248 10.58 31.1248 9.96 31.8848 9.52C32.6582 9.06667 33.5648 8.84 34.6048 8.84C35.5782 8.84 36.4382 9.05333 37.1848 9.48C37.9315 9.90667 38.5115 10.4933 38.9248 11.24C39.3515 11.9733 39.5648 12.7933 39.5648 13.7C39.5648 13.8467 39.5582 14 39.5448 14.16C39.5448 14.32 39.5382 14.4867 39.5248 14.66H31.9848C32.0382 15.4333 32.3048 16.04 32.7848 16.48C33.2782 16.92 33.8715 17.14 34.5648 17.14C35.0848 17.14 35.5182 17.0267 35.8648 16.8C36.2248 16.56 36.4915 16.2533 36.6648 15.88H39.2648C39.0782 16.5067 38.7648 17.08 38.3248 17.6C37.8982 18.1067 37.3648 18.5067 36.7248 18.8C36.0982 19.0933 35.3848 19.24 34.5848 19.24ZM34.6048 10.92C33.9782 10.92 33.4248 11.1 32.9448 11.46C32.4648 11.8067 32.1582 12.34 32.0248 13.06H36.9648C36.9248 12.4067 36.6848 11.8867 36.2448 11.5C35.8048 11.1133 35.2582 10.92 34.6048 10.92ZM40.718 19V9.08H42.978L43.178 10.76C43.4846 10.1733 43.9246 9.70667 44.498 9.36C45.0846 9.01333 45.7713 8.84 46.558 8.84C47.7846 8.84 48.738 9.22667 49.418 10C50.098 10.7733 50.438 11.9067 50.438 13.4V19H47.878V13.64C47.878 12.7867 47.7046 12.1333 47.358 11.68C47.0113 11.2267 46.4713 11 45.738 11C45.018 11 44.4246 11.2533 43.958 11.76C43.5046 12.2667 43.278 12.9733 43.278 13.88V19H40.718ZM56.4459 19.24C55.5126 19.24 54.6793 19.0133 53.9459 18.56C53.2126 18.1067 52.6326 17.4867 52.2059 16.7C51.7793 15.9133 51.5659 15.02 51.5659 14.02C51.5659 13.02 51.7793 12.1333 52.2059 11.36C52.6326 10.5733 53.2126 9.96 53.9459 9.52C54.6793 9.06667 55.5126 8.84 56.4459 8.84C57.1926 8.84 57.8459 8.98 58.4059 9.26C58.9659 9.54 59.4193 9.93333 59.7659 10.44V4.6H62.3259V19H60.0459L59.7659 17.58C59.4459 18.02 59.0193 18.4067 58.4859 18.74C57.9659 19.0733 57.2859 19.24 56.4459 19.24ZM56.9859 17C57.8126 17 58.4859 16.7267 59.0059 16.18C59.5393 15.62 59.8059 14.9067 59.8059 14.04C59.8059 13.1733 59.5393 12.4667 59.0059 11.92C58.4859 11.36 57.8126 11.08 56.9859 11.08C56.1726 11.08 55.4993 11.3533 54.9659 11.9C54.4326 12.4467 54.1659 13.1533 54.1659 14.02C54.1659 14.8867 54.4326 15.6 54.9659 16.16C55.4993 16.72 56.1726 17 56.9859 17ZM67.3528 19.24C66.4995 19.24 65.7995 19.1067 65.2528 18.84C64.7061 18.56 64.2995 18.1933 64.0328 17.74C63.7661 17.2867 63.6328 16.7867 63.6328 16.24C63.6328 15.32 63.9928 14.5733 64.7128 14C65.4328 13.4267 66.5128 13.14 67.9528 13.14H70.4728V12.9C70.4728 12.22 70.2795 11.72 69.8928 11.4C69.5061 11.08 69.0261 10.92 68.4528 10.92C67.9328 10.92 67.4795 11.0467 67.0928 11.3C66.7061 11.54 66.4661 11.9 66.3728 12.38H63.8728C63.9395 11.66 64.1795 11.0333 64.5928 10.5C65.0195 9.96667 65.5661 9.56 66.2328 9.28C66.8995 8.98667 67.6461 8.84 68.4728 8.84C69.8861 8.84 70.9995 9.19333 71.8128 9.9C72.6261 10.6067 73.0328 11.6067 73.0328 12.9V19H70.8528L70.6128 17.4C70.3195 17.9333 69.9061 18.3733 69.3728 18.72C68.8528 19.0667 68.1795 19.24 67.3528 19.24ZM67.9328 17.24C68.6661 17.24 69.2328 17 69.6328 16.52C70.0461 16.04 70.3061 15.4467 70.4128 14.74H68.2328C67.5528 14.74 67.0661 14.8667 66.7728 15.12C66.4795 15.36 66.3328 15.66 66.3328 16.02C66.3328 16.4067 66.4795 16.7067 66.7728 16.92C67.0661 17.1333 67.4528 17.24 67.9328 17.24ZM74.4758 19V9.08H76.7558L76.9958 10.94C77.3558 10.3 77.8424 9.79333 78.4558 9.42C79.0824 9.03333 79.8158 8.84 80.6558 8.84V11.54H79.9358C79.3758 11.54 78.8758 11.6267 78.4358 11.8C77.9958 11.9733 77.6491 12.2733 77.3958 12.7C77.1558 13.1267 77.0358 13.72 77.0358 14.48V19H74.4758Z" fill="#2E3A59"/>
</svg>
