<svg width="416" height="24" viewBox="0 0 416 24" fill="none" xmlns="http://www.w3.org/2000/svg">
<path d="M6.76 19.24C5.73333 19.24 4.80667 19.04 3.98 18.64C3.15333 18.2267 2.49333 17.6067 2 16.78C1.52 15.9533 1.28 14.9067 1.28 13.64V5H3.84V13.66C3.84 14.7533 4.1 15.5667 4.62 16.1C5.15333 16.6333 5.88667 16.9 6.82 16.9C7.74 16.9 8.46667 16.6333 9 16.1C9.53333 15.5667 9.8 14.7533 9.8 13.66V5H12.36V13.64C12.36 14.9067 12.1067 15.9533 11.6 16.78C11.0933 17.6067 10.4133 18.2267 9.56 18.64C8.72 19.04 7.78667 19.24 6.76 19.24ZM18.0133 19.24C17.1333 19.24 16.3599 19.1 15.6933 18.82C15.0266 18.5267 14.4933 18.1267 14.0933 17.62C13.6933 17.1133 13.4533 16.5267 13.3733 15.86H15.9533C16.0333 16.2467 16.2466 16.58 16.5933 16.86C16.9533 17.1267 17.4133 17.26 17.9733 17.26C18.5333 17.26 18.9399 17.1467 19.1933 16.92C19.4599 16.6933 19.5933 16.4333 19.5933 16.14C19.5933 15.7133 19.4066 15.4267 19.0333 15.28C18.6599 15.12 18.1399 14.9667 17.4733 14.82C17.0466 14.7267 16.6133 14.6133 16.1733 14.48C15.7333 14.3467 15.3266 14.18 14.9533 13.98C14.5933 13.7667 14.2999 13.5 14.0733 13.18C13.8466 12.8467 13.7333 12.44 13.7333 11.96C13.7333 11.08 14.0799 10.34 14.7733 9.74C15.4799 9.14 16.4666 8.84 17.7333 8.84C18.9066 8.84 19.8399 9.11333 20.5333 9.66C21.2399 10.2067 21.6599 10.96 21.7933 11.92H19.3733C19.2266 11.1867 18.6733 10.82 17.7133 10.82C17.2333 10.82 16.8599 10.9133 16.5933 11.1C16.3399 11.2867 16.2133 11.52 16.2133 11.8C16.2133 12.0933 16.4066 12.3267 16.7933 12.5C17.1799 12.6733 17.6933 12.8333 18.3333 12.98C19.0266 13.14 19.6599 13.32 20.2333 13.52C20.8199 13.7067 21.2866 13.9933 21.6333 14.38C21.9799 14.7533 22.1533 15.2933 22.1533 16C22.1666 16.6133 22.0066 17.1667 21.6733 17.66C21.3399 18.1533 20.8599 18.54 20.2333 18.82C19.6066 19.1 18.8666 19.24 18.0133 19.24ZM28.2411 19.24C27.2411 19.24 26.3544 19.0267 25.5811 18.6C24.8078 18.1733 24.2011 17.5733 23.7611 16.8C23.3211 16.0267 23.1011 15.1333 23.1011 14.12C23.1011 13.0933 23.3144 12.18 23.7411 11.38C24.1811 10.58 24.7811 9.96 25.5411 9.52C26.3144 9.06667 27.2211 8.84 28.2611 8.84C29.2344 8.84 30.0944 9.05333 30.8411 9.48C31.5878 9.90667 32.1678 10.4933 32.5811 11.24C33.0078 11.9733 33.2211 12.7933 33.2211 13.7C33.2211 13.8467 33.2144 14 33.2011 14.16C33.2011 14.32 33.1944 14.4867 33.1811 14.66H25.6411C25.6944 15.4333 25.9611 16.04 26.4411 16.48C26.9344 16.92 27.5278 17.14 28.2211 17.14C28.7411 17.14 29.1744 17.0267 29.5211 16.8C29.8811 16.56 30.1478 16.2533 30.3211 15.88H32.9211C32.7344 16.5067 32.4211 17.08 31.9811 17.6C31.5544 18.1067 31.0211 18.5067 30.3811 18.8C29.7544 19.0933 29.0411 19.24 28.2411 19.24ZM28.2611 10.92C27.6344 10.92 27.0811 11.1 26.6011 11.46C26.1211 11.8067 25.8144 12.34 25.6811 13.06H30.6211C30.5811 12.4067 30.3411 11.8867 29.9011 11.5C29.4611 11.1133 28.9144 10.92 28.2611 10.92ZM34.3742 19V9.08H36.6542L36.8942 10.94C37.2542 10.3 37.7409 9.79333 38.3542 9.42C38.9809 9.03333 39.7142 8.84 40.5542 8.84V11.54H39.8342C39.2742 11.54 38.7742 11.6267 38.3342 11.8C37.8942 11.9733 37.5476 12.2733 37.2942 12.7C37.0542 13.1267 36.9342 13.72 36.9342 14.48V19H34.3742Z" fill="#2E3A59"/>
</svg>
