<svg width="416" height="24" viewBox="0 0 416 24" fill="none" xmlns="http://www.w3.org/2000/svg">
<path d="M1.36 19V5H6.98C8.43333 5 9.54 5.34 10.3 6.02C11.0733 6.68667 11.46 7.54667 11.46 8.6C11.46 9.48 11.22 10.1867 10.74 10.72C10.2733 11.24 9.7 11.5933 9.02 11.78C9.82 11.94 10.48 12.34 11 12.98C11.52 13.6067 11.78 14.34 11.78 15.18C11.78 16.2867 11.38 17.2 10.58 17.92C9.78 18.64 8.64667 19 7.18 19H1.36ZM3.92 10.88H6.6C7.32 10.88 7.87333 10.7133 8.26 10.38C8.64667 10.0467 8.84 9.57333 8.84 8.96C8.84 8.37333 8.64667 7.91333 8.26 7.58C7.88667 7.23333 7.32 7.06 6.56 7.06H3.92V10.88ZM3.92 16.92H6.78C7.54 16.92 8.12667 16.7467 8.54 16.4C8.96667 16.04 9.18 15.54 9.18 14.9C9.18 14.2467 8.96 13.7333 8.52 13.36C8.08 12.9867 7.48667 12.8 6.74 12.8H3.92V16.92ZM12.9172 19V9.08H15.1972L15.4372 10.94C15.7972 10.3 16.2839 9.79333 16.8972 9.42C17.5239 9.03333 18.2572 8.84 19.0972 8.84V11.54H18.3772C17.8172 11.54 17.3172 11.6267 16.8772 11.8C16.4372 11.9733 16.0905 12.2733 15.8372 12.7C15.5972 13.1267 15.4772 13.72 15.4772 14.48V19H12.9172ZM23.2669 19.24C22.4135 19.24 21.7135 19.1067 21.1669 18.84C20.6202 18.56 20.2135 18.1933 19.9469 17.74C19.6802 17.2867 19.5469 16.7867 19.5469 16.24C19.5469 15.32 19.9069 14.5733 20.6269 14C21.3469 13.4267 22.4269 13.14 23.8669 13.14H26.3869V12.9C26.3869 12.22 26.1935 11.72 25.8069 11.4C25.4202 11.08 24.9402 10.92 24.3669 10.92C23.8469 10.92 23.3935 11.0467 23.0069 11.3C22.6202 11.54 22.3802 11.9 22.2869 12.38H19.7869C19.8535 11.66 20.0935 11.0333 20.5069 10.5C20.9335 9.96667 21.4802 9.56 22.1469 9.28C22.8135 8.98667 23.5602 8.84 24.3869 8.84C25.8002 8.84 26.9135 9.19333 27.7269 9.9C28.5402 10.6067 28.9469 11.6067 28.9469 12.9V19H26.7669L26.5269 17.4C26.2335 17.9333 25.8202 18.3733 25.2869 18.72C24.7669 19.0667 24.0935 19.24 23.2669 19.24ZM23.8469 17.24C24.5802 17.24 25.1469 17 25.5469 16.52C25.9602 16.04 26.2202 15.4467 26.3269 14.74H24.1469C23.4669 14.74 22.9802 14.8667 22.6869 15.12C22.3935 15.36 22.2469 15.66 22.2469 16.02C22.2469 16.4067 22.3935 16.7067 22.6869 16.92C22.9802 17.1333 23.3669 17.24 23.8469 17.24ZM30.3898 19V9.08H32.6498L32.8498 10.76C33.1565 10.1733 33.5965 9.70667 34.1698 9.36C34.7565 9.01333 35.4432 8.84 36.2298 8.84C37.4565 8.84 38.4098 9.22667 39.0898 10C39.7698 10.7733 40.1098 11.9067 40.1098 13.4V19H37.5498V13.64C37.5498 12.7867 37.3765 12.1333 37.0298 11.68C36.6832 11.2267 36.1432 11 35.4098 11C34.6898 11 34.0965 11.2533 33.6298 11.76C33.1765 12.2667 32.9498 12.9733 32.9498 13.88V19H30.3898ZM46.1178 19.24C45.1845 19.24 44.3511 19.0133 43.6178 18.56C42.8845 18.1067 42.3045 17.4867 41.8778 16.7C41.4511 15.9133 41.2378 15.02 41.2378 14.02C41.2378 13.02 41.4511 12.1333 41.8778 11.36C42.3045 10.5733 42.8845 9.96 43.6178 9.52C44.3511 9.06667 45.1845 8.84 46.1178 8.84C46.8645 8.84 47.5178 8.98 48.0778 9.26C48.6378 9.54 49.0911 9.93333 49.4378 10.44V4.6H51.9978V19H49.7178L49.4378 17.58C49.1178 18.02 48.6911 18.4067 48.1578 18.74C47.6378 19.0733 46.9578 19.24 46.1178 19.24ZM46.6578 17C47.4845 17 48.1578 16.7267 48.6778 16.18C49.2111 15.62 49.4778 14.9067 49.4778 14.04C49.4778 13.1733 49.2111 12.4667 48.6778 11.92C48.1578 11.36 47.4845 11.08 46.6578 11.08C45.8445 11.08 45.1711 11.3533 44.6378 11.9C44.1045 12.4467 43.8378 13.1533 43.8378 14.02C43.8378 14.8867 44.1045 15.6 44.6378 16.16C45.1711 16.72 45.8445 17 46.6578 17Z" fill="#2E3A59"/>
</svg>
