<svg width="416" height="24" viewBox="0 0 416 24" fill="none" xmlns="http://www.w3.org/2000/svg">
<path d="M1.36 19V5H4.4L8.86 13.88L13.26 5H16.3V19H13.74V9.34L9.84 17H7.82L3.92 9.34V19H1.36ZM22.7763 19.24C21.7763 19.24 20.8896 19.0267 20.1163 18.6C19.3429 18.1733 18.7363 17.5733 18.2963 16.8C17.8563 16.0267 17.6363 15.1333 17.6363 14.12C17.6363 13.0933 17.8496 12.18 18.2763 11.38C18.7163 10.58 19.3163 9.96 20.0763 9.52C20.8496 9.06667 21.7563 8.84 22.7963 8.84C23.7696 8.84 24.6296 9.05333 25.3763 9.48C26.1229 9.90667 26.7029 10.4933 27.1163 11.24C27.5429 11.9733 27.7563 12.7933 27.7563 13.7C27.7563 13.8467 27.7496 14 27.7363 14.16C27.7363 14.32 27.7296 14.4867 27.7163 14.66H20.1763C20.2296 15.4333 20.4963 16.04 20.9763 16.48C21.4696 16.92 22.0629 17.14 22.7563 17.14C23.2763 17.14 23.7096 17.0267 24.0563 16.8C24.4163 16.56 24.6829 16.2533 24.8563 15.88H27.4563C27.2696 16.5067 26.9563 17.08 26.5163 17.6C26.0896 18.1067 25.5563 18.5067 24.9163 18.8C24.2896 19.0933 23.5763 19.24 22.7763 19.24ZM22.7963 10.92C22.1696 10.92 21.6163 11.1 21.1363 11.46C20.6563 11.8067 20.3496 12.34 20.2163 13.06H25.1563C25.1163 12.4067 24.8763 11.8867 24.4363 11.5C23.9963 11.1133 23.4496 10.92 22.7963 10.92ZM28.9094 19V9.08H31.1694L31.3694 10.76C31.676 10.1733 32.116 9.70667 32.6894 9.36C33.276 9.01333 33.9627 8.84 34.7494 8.84C35.976 8.84 36.9294 9.22667 37.6094 10C38.2894 10.7733 38.6294 11.9067 38.6294 13.4V19H36.0694V13.64C36.0694 12.7867 35.896 12.1333 35.5494 11.68C35.2027 11.2267 34.6627 11 33.9294 11C33.2094 11 32.616 11.2533 32.1494 11.76C31.696 12.2667 31.4694 12.9733 31.4694 13.88V19H28.9094ZM43.7973 19.24C42.5573 19.24 41.5973 18.8533 40.9173 18.08C40.2507 17.3067 39.9173 16.1733 39.9173 14.68V9.08H42.4573V14.44C42.4573 15.2933 42.6307 15.9467 42.9773 16.4C43.324 16.8533 43.8707 17.08 44.6173 17.08C45.324 17.08 45.904 16.8267 46.3573 16.32C46.824 15.8133 47.0573 15.1067 47.0573 14.2V9.08H49.6173V19H47.3573L47.1573 17.32C46.8507 17.9067 46.404 18.3733 45.8173 18.72C45.244 19.0667 44.5707 19.24 43.7973 19.24Z" fill="#2E3A59"/>
</svg>
