<svg width="416" height="24" viewBox="0 0 416 24" fill="none" xmlns="http://www.w3.org/2000/svg">
<path d="M7.7 19.24C6.28667 19.24 5.07333 18.94 4.06 18.34C3.04667 17.7267 2.26667 16.88 1.72 15.8C1.17333 14.7067 0.9 13.4467 0.9 12.02C0.9 10.5933 1.17333 9.33333 1.72 8.24C2.26667 7.14667 3.04667 6.29333 4.06 5.68C5.07333 5.06667 6.28667 4.76 7.7 4.76C9.38 4.76 10.7533 5.18 11.82 6.02C12.9 6.84667 13.5733 8.01333 13.84 9.52H11.02C10.8467 8.76 10.4733 8.16667 9.9 7.74C9.34 7.3 8.59333 7.08 7.66 7.08C6.36667 7.08 5.35333 7.52 4.62 8.4C3.88667 9.28 3.52 10.4867 3.52 12.02C3.52 13.5533 3.88667 14.76 4.62 15.64C5.35333 16.5067 6.36667 16.94 7.66 16.94C8.59333 16.94 9.34 16.74 9.9 16.34C10.4733 15.9267 10.8467 15.36 11.02 14.64H13.84C13.5733 16.08 12.9 17.2067 11.82 18.02C10.7533 18.8333 9.38 19.24 7.7 19.24ZM15.0461 19V4.6H17.6061V10.6C17.9394 10.0533 18.3861 9.62667 18.9461 9.32C19.5194 9 20.1728 8.84 20.9061 8.84C22.1328 8.84 23.0794 9.22667 23.7461 10C24.4261 10.7733 24.7661 11.9067 24.7661 13.4V19H22.2261V13.64C22.2261 12.7867 22.0528 12.1333 21.7061 11.68C21.3728 11.2267 20.8394 11 20.1061 11C19.3861 11 18.7861 11.2533 18.3061 11.76C17.8394 12.2667 17.6061 12.9733 17.6061 13.88V19H15.0461ZM29.6341 19.24C28.7807 19.24 28.0807 19.1067 27.5341 18.84C26.9874 18.56 26.5807 18.1933 26.3141 17.74C26.0474 17.2867 25.9141 16.7867 25.9141 16.24C25.9141 15.32 26.2741 14.5733 26.9941 14C27.7141 13.4267 28.7941 13.14 30.2341 13.14H32.7541V12.9C32.7541 12.22 32.5607 11.72 32.1741 11.4C31.7874 11.08 31.3074 10.92 30.7341 10.92C30.2141 10.92 29.7607 11.0467 29.3741 11.3C28.9874 11.54 28.7474 11.9 28.6541 12.38H26.1541C26.2207 11.66 26.4607 11.0333 26.8741 10.5C27.3007 9.96667 27.8474 9.56 28.5141 9.28C29.1807 8.98667 29.9274 8.84 30.7541 8.84C32.1674 8.84 33.2807 9.19333 34.0941 9.9C34.9074 10.6067 35.3141 11.6067 35.3141 12.9V19H33.1341L32.8941 17.4C32.6007 17.9333 32.1874 18.3733 31.6541 18.72C31.1341 19.0667 30.4607 19.24 29.6341 19.24ZM30.2141 17.24C30.9474 17.24 31.5141 17 31.9141 16.52C32.3274 16.04 32.5874 15.4467 32.6941 14.74H30.5141C29.8341 14.74 29.3474 14.8667 29.0541 15.12C28.7607 15.36 28.6141 15.66 28.6141 16.02C28.6141 16.4067 28.7607 16.7067 29.0541 16.92C29.3474 17.1333 29.7341 17.24 30.2141 17.24ZM36.757 19V9.08H39.037L39.277 10.94C39.637 10.3 40.1237 9.79333 40.737 9.42C41.3637 9.03333 42.097 8.84 42.937 8.84V11.54H42.217C41.657 11.54 41.157 11.6267 40.717 11.8C40.277 11.9733 39.9304 12.2733 39.677 12.7C39.437 13.1267 39.317 13.72 39.317 14.48V19H36.757ZM48.1067 19C47.0667 19 46.2334 18.7467 45.6067 18.24C44.9801 17.7333 44.6667 16.8333 44.6667 15.54V11.22H42.9667V9.08H44.6667L44.9667 6.42H47.2267V9.08H49.9067V11.22H47.2267V15.56C47.2267 16.04 47.3267 16.3733 47.5267 16.56C47.7401 16.7333 48.1001 16.82 48.6067 16.82H49.8467V19H48.1067Z" fill="#2E3A59"/>
</svg>
