<svg width="416" height="24" viewBox="0 0 416 24" fill="none" xmlns="http://www.w3.org/2000/svg">
<path d="M7.48 19.24C6.16 19.24 5.00667 18.94 4.02 18.34C3.03333 17.74 2.26667 16.9067 1.72 15.84C1.17333 14.76 0.9 13.5067 0.9 12.08C0.9 10.64 1.18 9.37333 1.74 8.28C2.31333 7.17333 3.12 6.31333 4.16 5.7C5.21333 5.07333 6.46 4.76 7.9 4.76C9.54 4.76 10.9 5.15333 11.98 5.94C13.06 6.72667 13.76 7.81333 14.08 9.2H11.22C11.0067 8.54667 10.62 8.04 10.06 7.68C9.5 7.30667 8.78 7.12 7.9 7.12C6.5 7.12 5.42 7.56667 4.66 8.46C3.9 9.34 3.52 10.5533 3.52 12.1C3.52 13.6467 3.89333 14.8467 4.64 15.7C5.4 16.54 6.42667 16.96 7.72 16.96C8.98667 16.96 9.94 16.62 10.58 15.94C11.2333 15.2467 11.6267 14.34 11.76 13.22H8.22V11.3H14.34V19H11.98L11.78 17.16C11.3267 17.8267 10.76 18.34 10.08 18.7C9.4 19.06 8.53333 19.24 7.48 19.24ZM15.7688 19V9.08H18.0488L18.2888 10.94C18.6488 10.3 19.1354 9.79333 19.7487 9.42C20.3754 9.03333 21.1088 8.84 21.9488 8.84V11.54H21.2288C20.6688 11.54 20.1688 11.6267 19.7288 11.8C19.2888 11.9733 18.9421 12.2733 18.6888 12.7C18.4488 13.1267 18.3288 13.72 18.3288 14.48V19H15.7688ZM24.0784 7.54C23.6118 7.54 23.2251 7.4 22.9184 7.12C22.6251 6.84 22.4784 6.48667 22.4784 6.06C22.4784 5.63333 22.6251 5.28667 22.9184 5.02C23.2251 4.74 23.6118 4.6 24.0784 4.6C24.5451 4.6 24.9251 4.74 25.2184 5.02C25.5251 5.28667 25.6784 5.63333 25.6784 6.06C25.6784 6.48667 25.5251 6.84 25.2184 7.12C24.9251 7.4 24.5451 7.54 24.0784 7.54ZM22.7984 19V9.08H25.3584V19H22.7984ZM31.5905 19.24C30.6571 19.24 29.8238 19.0133 29.0905 18.56C28.3571 18.1067 27.7771 17.4867 27.3505 16.7C26.9238 15.9133 26.7105 15.02 26.7105 14.02C26.7105 13.02 26.9238 12.1333 27.3505 11.36C27.7771 10.5733 28.3571 9.96 29.0905 9.52C29.8238 9.06667 30.6571 8.84 31.5905 8.84C32.3371 8.84 32.9905 8.98 33.5505 9.26C34.1105 9.54 34.5638 9.93333 34.9105 10.44V4.6H37.4705V19H35.1905L34.9105 17.58C34.5905 18.02 34.1638 18.4067 33.6305 18.74C33.1105 19.0733 32.4305 19.24 31.5905 19.24ZM32.1305 17C32.9571 17 33.6305 16.7267 34.1505 16.18C34.6838 15.62 34.9505 14.9067 34.9505 14.04C34.9505 13.1733 34.6838 12.4667 34.1505 11.92C33.6305 11.36 32.9571 11.08 32.1305 11.08C31.3171 11.08 30.6438 11.3533 30.1105 11.9C29.5771 12.4467 29.3105 13.1533 29.3105 14.02C29.3105 14.8867 29.5771 15.6 30.1105 16.16C30.6438 16.72 31.3171 17 32.1305 17Z" fill="#2E3A59"/>
</svg>
