<svg width="416" height="24" viewBox="0 0 416 24" fill="none" xmlns="http://www.w3.org/2000/svg">
<path d="M328 15C326.343 15 325 13.6569 325 12C325 10.3431 326.343 9 328 9C329.657 9 331 10.3431 331 12C331 12.7956 330.684 13.5587 330.121 14.1213C329.559 14.6839 328.796 15 328 15Z" fill="#14CC9E"/>
<path d="M340.816 16V7.6H342.352L346.3 13.516V7.6H347.836V16H346.3L342.352 10.096V16H340.816ZM350.464 16V7.6H355.948V8.836H352V11.14H355.588V12.34H352V14.764H355.948V16H350.464ZM360.106 16L357.886 7.6H359.53L361.042 14.284L362.818 7.6H364.51L366.238 14.284L367.75 7.6H369.406L367.126 16H365.302L363.634 9.772L361.918 16H360.106ZM375.379 16V7.6H376.915V16H375.379ZM383.347 16.144C382.499 16.144 381.771 15.964 381.163 15.604C380.555 15.236 380.087 14.728 379.759 14.08C379.431 13.424 379.267 12.668 379.267 11.812C379.267 10.956 379.431 10.2 379.759 9.544C380.087 8.888 380.555 8.376 381.163 8.008C381.771 7.64 382.499 7.456 383.347 7.456C384.355 7.456 385.179 7.708 385.819 8.212C386.467 8.708 386.871 9.408 387.031 10.312H385.339C385.235 9.856 385.011 9.5 384.667 9.244C384.331 8.98 383.883 8.848 383.323 8.848C382.547 8.848 381.939 9.112 381.499 9.64C381.059 10.168 380.839 10.892 380.839 11.812C380.839 12.732 381.059 13.456 381.499 13.984C381.939 14.504 382.547 14.764 383.323 14.764C383.883 14.764 384.331 14.644 384.667 14.404C385.011 14.156 385.235 13.816 385.339 13.384H387.031C386.871 14.248 386.467 14.924 385.819 15.412C385.179 15.9 384.355 16.144 383.347 16.144ZM393.326 16.144C392.486 16.144 391.75 15.96 391.118 15.592C390.494 15.224 390.002 14.716 389.642 14.068C389.29 13.412 389.114 12.656 389.114 11.8C389.114 10.944 389.29 10.192 389.642 9.544C390.002 8.888 390.494 8.376 391.118 8.008C391.75 7.64 392.486 7.456 393.326 7.456C394.158 7.456 394.89 7.64 395.522 8.008C396.154 8.376 396.646 8.888 396.998 9.544C397.35 10.192 397.526 10.944 397.526 11.8C397.526 12.656 397.35 13.412 396.998 14.068C396.646 14.716 396.154 15.224 395.522 15.592C394.89 15.96 394.158 16.144 393.326 16.144ZM393.326 14.764C394.126 14.764 394.762 14.5 395.234 13.972C395.714 13.444 395.954 12.72 395.954 11.8C395.954 10.88 395.714 10.156 395.234 9.628C394.762 9.1 394.126 8.836 393.326 8.836C392.526 8.836 391.886 9.1 391.406 9.628C390.926 10.156 390.686 10.88 390.686 11.8C390.686 12.72 390.926 13.444 391.406 13.972C391.886 14.5 392.526 14.764 393.326 14.764ZM399.882 16V7.6H401.418L405.366 13.516V7.6H406.902V16H405.366L401.418 10.096V16H399.882ZM412.399 16.144C411.783 16.144 411.239 16.04 410.767 15.832C410.295 15.616 409.923 15.312 409.651 14.92C409.379 14.52 409.239 14.036 409.231 13.468H410.851C410.867 13.86 411.007 14.192 411.271 14.464C411.543 14.728 411.915 14.86 412.387 14.86C412.795 14.86 413.119 14.764 413.359 14.572C413.599 14.372 413.719 14.108 413.719 13.78C413.719 13.436 413.611 13.168 413.395 12.976C413.187 12.784 412.907 12.628 412.555 12.508C412.203 12.388 411.827 12.26 411.427 12.124C410.779 11.9 410.283 11.612 409.939 11.26C409.603 10.908 409.435 10.44 409.435 9.856C409.427 9.36 409.543 8.936 409.783 8.584C410.031 8.224 410.367 7.948 410.791 7.756C411.215 7.556 411.703 7.456 412.255 7.456C412.815 7.456 413.307 7.556 413.731 7.756C414.163 7.956 414.499 8.236 414.739 8.596C414.987 8.956 415.119 9.384 415.135 9.88H413.491C413.483 9.584 413.367 9.324 413.143 9.1C412.927 8.868 412.623 8.752 412.231 8.752C411.895 8.744 411.611 8.828 411.379 9.004C411.155 9.172 411.043 9.42 411.043 9.748C411.043 10.028 411.131 10.252 411.307 10.42C411.483 10.58 411.723 10.716 412.027 10.828C412.331 10.94 412.679 11.06 413.071 11.188C413.487 11.332 413.867 11.5 414.211 11.692C414.555 11.884 414.831 12.14 415.039 12.46C415.247 12.772 415.351 13.176 415.351 13.672C415.351 14.112 415.239 14.52 415.015 14.896C414.791 15.272 414.459 15.576 414.019 15.808C413.579 16.032 413.039 16.144 412.399 16.144Z" fill="#8F9BB3"/>
<path d="M1.36 19V5H4.4L8.86 13.88L13.26 5H16.3V19H13.74V9.34L9.84 17H7.82L3.92 9.34V19H1.36ZM19.3363 7.54C18.8696 7.54 18.4829 7.4 18.1763 7.12C17.8829 6.84 17.7363 6.48667 17.7363 6.06C17.7363 5.63333 17.8829 5.28667 18.1763 5.02C18.4829 4.74 18.8696 4.6 19.3363 4.6C19.8029 4.6 20.1829 4.74 20.4763 5.02C20.7829 5.28667 20.9363 5.63333 20.9363 6.06C20.9363 6.48667 20.7829 6.84 20.4763 7.12C20.1829 7.4 19.8029 7.54 19.3363 7.54ZM18.0563 19V9.08H20.6163V19H18.0563ZM26.3883 19.24C25.5083 19.24 24.7349 19.1 24.0683 18.82C23.4016 18.5267 22.8683 18.1267 22.4683 17.62C22.0683 17.1133 21.8283 16.5267 21.7483 15.86H24.3283C24.4083 16.2467 24.6216 16.58 24.9683 16.86C25.3283 17.1267 25.7883 17.26 26.3483 17.26C26.9083 17.26 27.3149 17.1467 27.5683 16.92C27.8349 16.6933 27.9683 16.4333 27.9683 16.14C27.9683 15.7133 27.7816 15.4267 27.4083 15.28C27.0349 15.12 26.5149 14.9667 25.8483 14.82C25.4216 14.7267 24.9883 14.6133 24.5483 14.48C24.1083 14.3467 23.7016 14.18 23.3283 13.98C22.9683 13.7667 22.6749 13.5 22.4483 13.18C22.2216 12.8467 22.1083 12.44 22.1083 11.96C22.1083 11.08 22.4549 10.34 23.1483 9.74C23.8549 9.14 24.8416 8.84 26.1083 8.84C27.2816 8.84 28.2149 9.11333 28.9083 9.66C29.6149 10.2067 30.0349 10.96 30.1683 11.92H27.7483C27.6016 11.1867 27.0483 10.82 26.0883 10.82C25.6083 10.82 25.2349 10.9133 24.9683 11.1C24.7149 11.2867 24.5883 11.52 24.5883 11.8C24.5883 12.0933 24.7816 12.3267 25.1683 12.5C25.5549 12.6733 26.0683 12.8333 26.7083 12.98C27.4016 13.14 28.0349 13.32 28.6083 13.52C29.1949 13.7067 29.6616 13.9933 30.0083 14.38C30.3549 14.7533 30.5283 15.2933 30.5283 16C30.5416 16.6133 30.3816 17.1667 30.0483 17.66C29.7149 18.1533 29.2349 18.54 28.6083 18.82C27.9816 19.1 27.2416 19.24 26.3883 19.24ZM36.6561 19.24C35.6428 19.24 34.7494 19.02 33.9761 18.58C33.2028 18.14 32.5894 17.5267 32.1361 16.74C31.6961 15.9533 31.4761 15.0533 31.4761 14.04C31.4761 13.0267 31.6961 12.1267 32.1361 11.34C32.5894 10.5533 33.2028 9.94 33.9761 9.5C34.7494 9.06 35.6428 8.84 36.6561 8.84C37.9228 8.84 38.9894 9.17333 39.8561 9.84C40.7228 10.4933 41.2761 11.4 41.5161 12.56H38.8161C38.6828 12.08 38.4161 11.7067 38.0161 11.44C37.6294 11.16 37.1694 11.02 36.6361 11.02C35.9294 11.02 35.3294 11.2867 34.8361 11.82C34.3428 12.3533 34.0961 13.0933 34.0961 14.04C34.0961 14.9867 34.3428 15.7267 34.8361 16.26C35.3294 16.7933 35.9294 17.06 36.6361 17.06C37.1694 17.06 37.6294 16.9267 38.0161 16.66C38.4161 16.3933 38.6828 16.0133 38.8161 15.52H41.5161C41.2761 16.64 40.7228 17.54 39.8561 18.22C38.9894 18.9 37.9228 19.24 36.6561 19.24Z" fill="#2E3A59"/>
</svg>
