<svg width="416" height="24" viewBox="0 0 416 24" fill="none" xmlns="http://www.w3.org/2000/svg">
<path d="M0.46 19L5.58 5H8.46L13.58 19H10.86L9.74 15.76H4.28L3.14 19H0.46ZM4.98 13.76H9.04L7 7.94L4.98 13.76ZM17.7669 19C16.7269 19 15.8935 18.7467 15.2669 18.24C14.6402 17.7333 14.3269 16.8333 14.3269 15.54V11.22H12.6269V9.08H14.3269L14.6269 6.42H16.8869V9.08H19.5669V11.22H16.8869V15.56C16.8869 16.04 16.9869 16.3733 17.1869 16.56C17.4002 16.7333 17.7602 16.82 18.2669 16.82H19.5069V19H17.7669ZM25.1848 19C24.1448 19 23.3115 18.7467 22.6848 18.24C22.0582 17.7333 21.7448 16.8333 21.7448 15.54V11.22H20.0448V9.08H21.7448L22.0448 6.42H24.3048V9.08H26.9848V11.22H24.3048V15.56C24.3048 16.04 24.4048 16.3733 24.6048 16.56C24.8182 16.7333 25.1782 16.82 25.6848 16.82H26.9248V19H25.1848ZM32.7489 19.24C31.7489 19.24 30.8622 19.0267 30.0889 18.6C29.3156 18.1733 28.7089 17.5733 28.2689 16.8C27.8289 16.0267 27.6089 15.1333 27.6089 14.12C27.6089 13.0933 27.8222 12.18 28.2489 11.38C28.6889 10.58 29.2889 9.96 30.0489 9.52C30.8222 9.06667 31.7289 8.84 32.7689 8.84C33.7422 8.84 34.6022 9.05333 35.3489 9.48C36.0956 9.90667 36.6756 10.4933 37.0889 11.24C37.5156 11.9733 37.7289 12.7933 37.7289 13.7C37.7289 13.8467 37.7222 14 37.7089 14.16C37.7089 14.32 37.7022 14.4867 37.6889 14.66H30.1489C30.2022 15.4333 30.4689 16.04 30.9489 16.48C31.4422 16.92 32.0356 17.14 32.7289 17.14C33.2489 17.14 33.6822 17.0267 34.0289 16.8C34.3889 16.56 34.6556 16.2533 34.8289 15.88H37.4289C37.2422 16.5067 36.9289 17.08 36.4889 17.6C36.0622 18.1067 35.5289 18.5067 34.8889 18.8C34.2622 19.0933 33.5489 19.24 32.7489 19.24ZM32.7689 10.92C32.1422 10.92 31.5889 11.1 31.1089 11.46C30.6289 11.8067 30.3222 12.34 30.1889 13.06H35.1289C35.0889 12.4067 34.8489 11.8867 34.4089 11.5C33.9689 11.1133 33.4222 10.92 32.7689 10.92ZM38.882 19V9.08H41.142L41.342 10.76C41.6487 10.1733 42.0887 9.70667 42.662 9.36C43.2487 9.01333 43.9354 8.84 44.722 8.84C45.9487 8.84 46.902 9.22667 47.582 10C48.262 10.7733 48.602 11.9067 48.602 13.4V19H46.042V13.64C46.042 12.7867 45.8687 12.1333 45.522 11.68C45.1754 11.2267 44.6354 11 43.902 11C43.182 11 42.5887 11.2533 42.122 11.76C41.6687 12.2667 41.442 12.9733 41.442 13.88V19H38.882ZM54.47 19C53.43 19 52.5967 18.7467 51.97 18.24C51.3433 17.7333 51.03 16.8333 51.03 15.54V11.22H49.33V9.08H51.03L51.33 6.42H53.59V9.08H56.27V11.22H53.59V15.56C53.59 16.04 53.69 16.3733 53.89 16.56C54.1033 16.7333 54.4633 16.82 54.97 16.82H56.21V19H54.47ZM58.848 7.54C58.3813 7.54 57.9946 7.4 57.688 7.12C57.3946 6.84 57.248 6.48667 57.248 6.06C57.248 5.63333 57.3946 5.28667 57.688 5.02C57.9946 4.74 58.3813 4.6 58.848 4.6C59.3146 4.6 59.6946 4.74 59.988 5.02C60.2946 5.28667 60.448 5.63333 60.448 6.06C60.448 6.48667 60.2946 6.84 59.988 7.12C59.6946 7.4 59.3146 7.54 58.848 7.54ZM57.568 19V9.08H60.128V19H57.568ZM66.56 19.24C65.6 19.24 64.7333 19.02 63.96 18.58C63.2 18.14 62.5933 17.5333 62.14 16.76C61.7 15.9733 61.48 15.0667 61.48 14.04C61.48 13.0133 61.7067 12.1133 62.16 11.34C62.6133 10.5533 63.22 9.94 63.98 9.5C64.7533 9.06 65.62 8.84 66.58 8.84C67.5267 8.84 68.38 9.06 69.14 9.5C69.9133 9.94 70.52 10.5533 70.96 11.34C71.4133 12.1133 71.64 13.0133 71.64 14.04C71.64 15.0667 71.4133 15.9733 70.96 16.76C70.52 17.5333 69.9133 18.14 69.14 18.58C68.3667 19.02 67.5067 19.24 66.56 19.24ZM66.56 17.02C67.2267 17.02 67.8067 16.7733 68.3 16.28C68.7933 15.7733 69.04 15.0267 69.04 14.04C69.04 13.0533 68.7933 12.3133 68.3 11.82C67.8067 11.3133 67.2333 11.06 66.58 11.06C65.9 11.06 65.3133 11.3133 64.82 11.82C64.34 12.3133 64.1 13.0533 64.1 14.04C64.1 15.0267 64.34 15.7733 64.82 16.28C65.3133 16.7733 65.8933 17.02 66.56 17.02ZM72.9289 19V9.08H75.1889L75.3889 10.76C75.6956 10.1733 76.1356 9.70667 76.7089 9.36C77.2956 9.01333 77.9822 8.84 78.7689 8.84C79.9956 8.84 80.9489 9.22667 81.6289 10C82.3089 10.7733 82.6489 11.9067 82.6489 13.4V19H80.0889V13.64C80.0889 12.7867 79.9156 12.1333 79.5689 11.68C79.2222 11.2267 78.6822 11 77.9489 11C77.2289 11 76.6356 11.2533 76.1689 11.76C75.7156 12.2667 75.4889 12.9733 75.4889 13.88V19H72.9289Z" fill="#2E3A59"/>
</svg>
