<svg width="416" height="24" viewBox="0 0 416 24" fill="none" xmlns="http://www.w3.org/2000/svg">
<path d="M1.36 19V5H6.14C7.78 5 9.12667 5.29333 10.18 5.88C11.2467 6.45333 12.0333 7.26667 12.54 8.32C13.06 9.36 13.32 10.5867 13.32 12C13.32 13.4133 13.06 14.6467 12.54 15.7C12.0333 16.74 11.2467 17.5533 10.18 18.14C9.12667 18.7133 7.78 19 6.14 19H1.36ZM3.92 16.8H6.02C7.19333 16.8 8.12 16.6133 8.8 16.24C9.48 15.8533 9.96667 15.3067 10.26 14.6C10.5533 13.88 10.7 13.0133 10.7 12C10.7 11 10.5533 10.14 10.26 9.42C9.96667 8.7 9.48 8.14667 8.8 7.76C8.12 7.37333 7.19333 7.18 6.02 7.18H3.92V16.8ZM19.3388 19.24C18.3388 19.24 17.4521 19.0267 16.6788 18.6C15.9054 18.1733 15.2988 17.5733 14.8588 16.8C14.4188 16.0267 14.1988 15.1333 14.1988 14.12C14.1988 13.0933 14.4121 12.18 14.8388 11.38C15.2788 10.58 15.8788 9.96 16.6388 9.52C17.4121 9.06667 18.3188 8.84 19.3588 8.84C20.3321 8.84 21.1921 9.05333 21.9388 9.48C22.6854 9.90667 23.2654 10.4933 23.6788 11.24C24.1054 11.9733 24.3188 12.7933 24.3188 13.7C24.3188 13.8467 24.3121 14 24.2988 14.16C24.2988 14.32 24.2921 14.4867 24.2788 14.66H16.7388C16.7921 15.4333 17.0588 16.04 17.5388 16.48C18.0321 16.92 18.6254 17.14 19.3188 17.14C19.8388 17.14 20.2721 17.0267 20.6188 16.8C20.9788 16.56 21.2454 16.2533 21.4188 15.88H24.0188C23.8321 16.5067 23.5188 17.08 23.0788 17.6C22.6521 18.1067 22.1188 18.5067 21.4788 18.8C20.8521 19.0933 20.1388 19.24 19.3388 19.24ZM19.3588 10.92C18.7321 10.92 18.1788 11.1 17.6988 11.46C17.2188 11.8067 16.9121 12.34 16.7788 13.06H21.7188C21.6788 12.4067 21.4388 11.8867 20.9988 11.5C20.5588 11.1133 20.0121 10.92 19.3588 10.92ZM27.7613 19L24.1213 9.08H26.8013L29.3213 16.58L31.8413 9.08H34.5213L30.8613 19H27.7613ZM36.5159 7.54C36.0493 7.54 35.6626 7.4 35.3559 7.12C35.0626 6.84 34.9159 6.48667 34.9159 6.06C34.9159 5.63333 35.0626 5.28667 35.3559 5.02C35.6626 4.74 36.0493 4.6 36.5159 4.6C36.9826 4.6 37.3626 4.74 37.6559 5.02C37.9626 5.28667 38.1159 5.63333 38.1159 6.06C38.1159 6.48667 37.9626 6.84 37.6559 7.12C37.3626 7.4 36.9826 7.54 36.5159 7.54ZM35.2359 19V9.08H37.7959V19H35.2359ZM44.328 19.24C43.3146 19.24 42.4213 19.02 41.648 18.58C40.8746 18.14 40.2613 17.5267 39.808 16.74C39.368 15.9533 39.148 15.0533 39.148 14.04C39.148 13.0267 39.368 12.1267 39.808 11.34C40.2613 10.5533 40.8746 9.94 41.648 9.5C42.4213 9.06 43.3146 8.84 44.328 8.84C45.5946 8.84 46.6613 9.17333 47.528 9.84C48.3946 10.4933 48.948 11.4 49.188 12.56H46.488C46.3546 12.08 46.088 11.7067 45.688 11.44C45.3013 11.16 44.8413 11.02 44.308 11.02C43.6013 11.02 43.0013 11.2867 42.508 11.82C42.0146 12.3533 41.768 13.0933 41.768 14.04C41.768 14.9867 42.0146 15.7267 42.508 16.26C43.0013 16.7933 43.6013 17.06 44.308 17.06C44.8413 17.06 45.3013 16.9267 45.688 16.66C46.088 16.3933 46.3546 16.0133 46.488 15.52H49.188C48.948 16.64 48.3946 17.54 47.528 18.22C46.6613 18.9 45.5946 19.24 44.328 19.24ZM55.2802 19.24C54.2802 19.24 53.3935 19.0267 52.6202 18.6C51.8468 18.1733 51.2402 17.5733 50.8002 16.8C50.3602 16.0267 50.1402 15.1333 50.1402 14.12C50.1402 13.0933 50.3535 12.18 50.7802 11.38C51.2202 10.58 51.8202 9.96 52.5802 9.52C53.3535 9.06667 54.2602 8.84 55.3002 8.84C56.2735 8.84 57.1335 9.05333 57.8802 9.48C58.6268 9.90667 59.2068 10.4933 59.6202 11.24C60.0468 11.9733 60.2602 12.7933 60.2602 13.7C60.2602 13.8467 60.2535 14 60.2402 14.16C60.2402 14.32 60.2335 14.4867 60.2202 14.66H52.6802C52.7335 15.4333 53.0002 16.04 53.4802 16.48C53.9735 16.92 54.5668 17.14 55.2602 17.14C55.7802 17.14 56.2135 17.0267 56.5602 16.8C56.9202 16.56 57.1868 16.2533 57.3602 15.88H59.9602C59.7735 16.5067 59.4602 17.08 59.0202 17.6C58.5935 18.1067 58.0602 18.5067 57.4202 18.8C56.7935 19.0933 56.0802 19.24 55.2802 19.24ZM55.3002 10.92C54.6735 10.92 54.1202 11.1 53.6402 11.46C53.1602 11.8067 52.8535 12.34 52.7202 13.06H57.6602C57.6202 12.4067 57.3802 11.8867 56.9402 11.5C56.5002 11.1133 55.9535 10.92 55.3002 10.92Z" fill="#2E3A59"/>
</svg>
