<svg width="416" height="24" viewBox="0 0 416 24" fill="none" xmlns="http://www.w3.org/2000/svg">
<path d="M1.36 19V5H10.5V7.06H3.92V10.9H9.9V12.9H3.92V16.94H10.5V19H1.36ZM16.4225 19.24C15.4892 19.24 14.6558 19.0133 13.9225 18.56C13.1892 18.1067 12.6092 17.4867 12.1825 16.7C11.7558 15.9133 11.5425 15.02 11.5425 14.02C11.5425 13.02 11.7558 12.1333 12.1825 11.36C12.6092 10.5733 13.1892 9.96 13.9225 9.52C14.6558 9.06667 15.4892 8.84 16.4225 8.84C17.1692 8.84 17.8225 8.98 18.3825 9.26C18.9425 9.54 19.3958 9.93333 19.7425 10.44V4.6H22.3025V19H20.0225L19.7425 17.58C19.4225 18.02 18.9958 18.4067 18.4625 18.74C17.9425 19.0733 17.2625 19.24 16.4225 19.24ZM16.9625 17C17.7892 17 18.4625 16.7267 18.9825 16.18C19.5158 15.62 19.7825 14.9067 19.7825 14.04C19.7825 13.1733 19.5158 12.4667 18.9825 11.92C18.4625 11.36 17.7892 11.08 16.9625 11.08C16.1492 11.08 15.4758 11.3533 14.9425 11.9C14.4092 12.4467 14.1425 13.1533 14.1425 14.02C14.1425 14.8867 14.4092 15.6 14.9425 16.16C15.4758 16.72 16.1492 17 16.9625 17ZM25.2894 7.54C24.8227 7.54 24.436 7.4 24.1294 7.12C23.836 6.84 23.6894 6.48667 23.6894 6.06C23.6894 5.63333 23.836 5.28667 24.1294 5.02C24.436 4.74 24.8227 4.6 25.2894 4.6C25.756 4.6 26.136 4.74 26.4294 5.02C26.736 5.28667 26.8894 5.63333 26.8894 6.06C26.8894 6.48667 26.736 6.84 26.4294 7.12C26.136 7.4 25.756 7.54 25.2894 7.54ZM24.0094 19V9.08H26.5694V19H24.0094ZM32.6614 19C31.6214 19 30.7881 18.7467 30.1614 18.24C29.5347 17.7333 29.2214 16.8333 29.2214 15.54V11.22H27.5214V9.08H29.2214L29.5214 6.42H31.7814V9.08H34.4614V11.22H31.7814V15.56C31.7814 16.04 31.8814 16.3733 32.0814 16.56C32.2947 16.7333 32.6547 16.82 33.1614 16.82H34.4014V19H32.6614Z" fill="#2E3A59"/>
</svg>
