<svg width="416" height="24" viewBox="0 0 416 24" fill="none" xmlns="http://www.w3.org/2000/svg">
<path d="M328 15C326.343 15 325 13.6569 325 12C325 10.3431 326.343 9 328 9C329.657 9 331 10.3431 331 12C331 12.7956 330.684 13.5587 330.121 14.1213C329.559 14.6839 328.796 15 328 15Z" fill="#14CC9E"/>
<path d="M340.816 16V7.6H342.352L346.3 13.516V7.6H347.836V16H346.3L342.352 10.096V16H340.816ZM350.464 16V7.6H355.948V8.836H352V11.14H355.588V12.34H352V14.764H355.948V16H350.464ZM360.106 16L357.886 7.6H359.53L361.042 14.284L362.818 7.6H364.51L366.238 14.284L367.75 7.6H369.406L367.126 16H365.302L363.634 9.772L361.918 16H360.106ZM375.379 16V7.6H376.915V16H375.379ZM383.347 16.144C382.499 16.144 381.771 15.964 381.163 15.604C380.555 15.236 380.087 14.728 379.759 14.08C379.431 13.424 379.267 12.668 379.267 11.812C379.267 10.956 379.431 10.2 379.759 9.544C380.087 8.888 380.555 8.376 381.163 8.008C381.771 7.64 382.499 7.456 383.347 7.456C384.355 7.456 385.179 7.708 385.819 8.212C386.467 8.708 386.871 9.408 387.031 10.312H385.339C385.235 9.856 385.011 9.5 384.667 9.244C384.331 8.98 383.883 8.848 383.323 8.848C382.547 8.848 381.939 9.112 381.499 9.64C381.059 10.168 380.839 10.892 380.839 11.812C380.839 12.732 381.059 13.456 381.499 13.984C381.939 14.504 382.547 14.764 383.323 14.764C383.883 14.764 384.331 14.644 384.667 14.404C385.011 14.156 385.235 13.816 385.339 13.384H387.031C386.871 14.248 386.467 14.924 385.819 15.412C385.179 15.9 384.355 16.144 383.347 16.144ZM393.326 16.144C392.486 16.144 391.75 15.96 391.118 15.592C390.494 15.224 390.002 14.716 389.642 14.068C389.29 13.412 389.114 12.656 389.114 11.8C389.114 10.944 389.29 10.192 389.642 9.544C390.002 8.888 390.494 8.376 391.118 8.008C391.75 7.64 392.486 7.456 393.326 7.456C394.158 7.456 394.89 7.64 395.522 8.008C396.154 8.376 396.646 8.888 396.998 9.544C397.35 10.192 397.526 10.944 397.526 11.8C397.526 12.656 397.35 13.412 396.998 14.068C396.646 14.716 396.154 15.224 395.522 15.592C394.89 15.96 394.158 16.144 393.326 16.144ZM393.326 14.764C394.126 14.764 394.762 14.5 395.234 13.972C395.714 13.444 395.954 12.72 395.954 11.8C395.954 10.88 395.714 10.156 395.234 9.628C394.762 9.1 394.126 8.836 393.326 8.836C392.526 8.836 391.886 9.1 391.406 9.628C390.926 10.156 390.686 10.88 390.686 11.8C390.686 12.72 390.926 13.444 391.406 13.972C391.886 14.5 392.526 14.764 393.326 14.764ZM399.882 16V7.6H401.418L405.366 13.516V7.6H406.902V16H405.366L401.418 10.096V16H399.882ZM412.399 16.144C411.783 16.144 411.239 16.04 410.767 15.832C410.295 15.616 409.923 15.312 409.651 14.92C409.379 14.52 409.239 14.036 409.231 13.468H410.851C410.867 13.86 411.007 14.192 411.271 14.464C411.543 14.728 411.915 14.86 412.387 14.86C412.795 14.86 413.119 14.764 413.359 14.572C413.599 14.372 413.719 14.108 413.719 13.78C413.719 13.436 413.611 13.168 413.395 12.976C413.187 12.784 412.907 12.628 412.555 12.508C412.203 12.388 411.827 12.26 411.427 12.124C410.779 11.9 410.283 11.612 409.939 11.26C409.603 10.908 409.435 10.44 409.435 9.856C409.427 9.36 409.543 8.936 409.783 8.584C410.031 8.224 410.367 7.948 410.791 7.756C411.215 7.556 411.703 7.456 412.255 7.456C412.815 7.456 413.307 7.556 413.731 7.756C414.163 7.956 414.499 8.236 414.739 8.596C414.987 8.956 415.119 9.384 415.135 9.88H413.491C413.483 9.584 413.367 9.324 413.143 9.1C412.927 8.868 412.623 8.752 412.231 8.752C411.895 8.744 411.611 8.828 411.379 9.004C411.155 9.172 411.043 9.42 411.043 9.748C411.043 10.028 411.131 10.252 411.307 10.42C411.483 10.58 411.723 10.716 412.027 10.828C412.331 10.94 412.679 11.06 413.071 11.188C413.487 11.332 413.867 11.5 414.211 11.692C414.555 11.884 414.831 12.14 415.039 12.46C415.247 12.772 415.351 13.176 415.351 13.672C415.351 14.112 415.239 14.52 415.015 14.896C414.791 15.272 414.459 15.576 414.019 15.808C413.579 16.032 413.039 16.144 412.399 16.144Z" fill="#8F9BB3"/>
<path d="M1.36 19V5H3.92V10.82H10.2V5H12.76V19H10.2V12.9H3.92V19H1.36ZM19.1811 19.24C18.2211 19.24 17.3544 19.02 16.5811 18.58C15.8211 18.14 15.2144 17.5333 14.7611 16.76C14.3211 15.9733 14.1011 15.0667 14.1011 14.04C14.1011 13.0133 14.3278 12.1133 14.7811 11.34C15.2344 10.5533 15.8411 9.94 16.6011 9.5C17.3744 9.06 18.2411 8.84 19.2011 8.84C20.1478 8.84 21.0011 9.06 21.7611 9.5C22.5344 9.94 23.1411 10.5533 23.5811 11.34C24.0344 12.1133 24.2611 13.0133 24.2611 14.04C24.2611 15.0667 24.0344 15.9733 23.5811 16.76C23.1411 17.5333 22.5344 18.14 21.7611 18.58C20.9878 19.02 20.1278 19.24 19.1811 19.24ZM19.1811 17.02C19.8478 17.02 20.4278 16.7733 20.9211 16.28C21.4144 15.7733 21.6611 15.0267 21.6611 14.04C21.6611 13.0533 21.4144 12.3133 20.9211 11.82C20.4278 11.3133 19.8544 11.06 19.2011 11.06C18.5211 11.06 17.9344 11.3133 17.4411 11.82C16.9611 12.3133 16.7211 13.0533 16.7211 14.04C16.7211 15.0267 16.9611 15.7733 17.4411 16.28C17.9344 16.7733 18.5144 17.02 19.1811 17.02ZM25.55 19V9.08H27.81L28.03 10.42C28.35 9.94 28.77 9.56 29.29 9.28C29.8233 8.98667 30.4367 8.84 31.13 8.84C32.6633 8.84 33.75 9.43333 34.39 10.62C34.75 10.0733 35.23 9.64 35.83 9.32C36.4433 9 37.11 8.84 37.83 8.84C39.1233 8.84 40.1167 9.22667 40.81 10C41.5033 10.7733 41.85 11.9067 41.85 13.4V19H39.29V13.64C39.29 12.7867 39.1233 12.1333 38.79 11.68C38.47 11.2267 37.97 11 37.29 11C36.5967 11 36.0367 11.2533 35.61 11.76C35.1967 12.2667 34.99 12.9733 34.99 13.88V19H32.43V13.64C32.43 12.7867 32.2633 12.1333 31.93 11.68C31.5967 11.2267 31.0833 11 30.39 11C29.71 11 29.1567 11.2533 28.73 11.76C28.3167 12.2667 28.11 12.9733 28.11 13.88V19H25.55ZM48.1005 19.24C47.1005 19.24 46.2138 19.0267 45.4405 18.6C44.6671 18.1733 44.0605 17.5733 43.6205 16.8C43.1805 16.0267 42.9605 15.1333 42.9605 14.12C42.9605 13.0933 43.1738 12.18 43.6005 11.38C44.0405 10.58 44.6405 9.96 45.4005 9.52C46.1738 9.06667 47.0805 8.84 48.1205 8.84C49.0938 8.84 49.9538 9.05333 50.7005 9.48C51.4471 9.90667 52.0271 10.4933 52.4405 11.24C52.8671 11.9733 53.0805 12.7933 53.0805 13.7C53.0805 13.8467 53.0738 14 53.0605 14.16C53.0605 14.32 53.0538 14.4867 53.0405 14.66H45.5005C45.5538 15.4333 45.8205 16.04 46.3005 16.48C46.7938 16.92 47.3871 17.14 48.0805 17.14C48.6005 17.14 49.0338 17.0267 49.3805 16.8C49.7405 16.56 50.0071 16.2533 50.1805 15.88H52.7805C52.5938 16.5067 52.2805 17.08 51.8405 17.6C51.4138 18.1067 50.8805 18.5067 50.2405 18.8C49.6138 19.0933 48.9005 19.24 48.1005 19.24ZM48.1205 10.92C47.4938 10.92 46.9405 11.1 46.4605 11.46C45.9805 11.8067 45.6738 12.34 45.5405 13.06H50.4805C50.4405 12.4067 50.2005 11.8867 49.7605 11.5C49.3205 11.1133 48.7738 10.92 48.1205 10.92Z" fill="#2E3A59"/>
</svg>
