<svg width="416" height="24" viewBox="0 0 416 24" fill="none" xmlns="http://www.w3.org/2000/svg">
<path d="M0.46 19L5.58 5H8.46L13.58 19H10.86L9.74 15.76H4.28L3.14 19H0.46ZM4.98 13.76H9.04L7 7.94L4.98 13.76ZM14.3234 19V9.08H16.6034L16.8434 10.94C17.2034 10.3 17.6901 9.79333 18.3034 9.42C18.9301 9.03333 19.6634 8.84 20.5034 8.84V11.54H19.7834C19.2234 11.54 18.7234 11.6267 18.2834 11.8C17.8434 11.9733 17.4968 12.2733 17.2434 12.7C17.0034 13.1267 16.8834 13.72 16.8834 14.48V19H14.3234ZM21.2531 19V9.08H23.5331L23.7731 10.94C24.1331 10.3 24.6198 9.79333 25.2331 9.42C25.8598 9.03333 26.5931 8.84 27.4331 8.84V11.54H26.7131C26.1531 11.54 25.6531 11.6267 25.2131 11.8C24.7731 11.9733 24.4265 12.2733 24.1731 12.7C23.9331 13.1267 23.8131 13.72 23.8131 14.48V19H21.2531ZM32.767 19.24C31.807 19.24 30.9404 19.02 30.167 18.58C29.407 18.14 28.8004 17.5333 28.347 16.76C27.907 15.9733 27.687 15.0667 27.687 14.04C27.687 13.0133 27.9137 12.1133 28.367 11.34C28.8204 10.5533 29.427 9.94 30.187 9.5C30.9604 9.06 31.827 8.84 32.787 8.84C33.7337 8.84 34.587 9.06 35.347 9.5C36.1204 9.94 36.727 10.5533 37.167 11.34C37.6204 12.1133 37.847 13.0133 37.847 14.04C37.847 15.0667 37.6204 15.9733 37.167 16.76C36.727 17.5333 36.1204 18.14 35.347 18.58C34.5737 19.02 33.7137 19.24 32.767 19.24ZM32.767 17.02C33.4337 17.02 34.0137 16.7733 34.507 16.28C35.0004 15.7733 35.247 15.0267 35.247 14.04C35.247 13.0533 35.0004 12.3133 34.507 11.82C34.0137 11.3133 33.4404 11.06 32.787 11.06C32.107 11.06 31.5204 11.3133 31.027 11.82C30.547 12.3133 30.307 13.0533 30.307 14.04C30.307 15.0267 30.547 15.7733 31.027 16.28C31.5204 16.7733 32.1004 17.02 32.767 17.02ZM40.7244 19L37.8244 9.08H40.3644L42.0844 16.22L44.0844 9.08H46.9244L48.9244 16.22L50.6644 9.08H53.2044L50.2844 19H47.6244L45.5044 11.58L43.3844 19H40.7244Z" fill="#2E3A59"/>
</svg>
