<svg width="416" height="24" viewBox="0 0 416 24" fill="none" xmlns="http://www.w3.org/2000/svg">
<path d="M328 15C326.343 15 325 13.6569 325 12C325 10.3431 326.343 9 328 9C329.657 9 331 10.3431 331 12C331 12.7956 330.684 13.5587 330.121 14.1213C329.559 14.6839 328.796 15 328 15Z" fill="#14CC9E"/>
<path d="M340.816 16V7.6H342.352L346.3 13.516V7.6H347.836V16H346.3L342.352 10.096V16H340.816ZM350.464 16V7.6H355.948V8.836H352V11.14H355.588V12.34H352V14.764H355.948V16H350.464ZM360.106 16L357.886 7.6H359.53L361.042 14.284L362.818 7.6H364.51L366.238 14.284L367.75 7.6H369.406L367.126 16H365.302L363.634 9.772L361.918 16H360.106ZM375.379 16V7.6H376.915V16H375.379ZM383.347 16.144C382.499 16.144 381.771 15.964 381.163 15.604C380.555 15.236 380.087 14.728 379.759 14.08C379.431 13.424 379.267 12.668 379.267 11.812C379.267 10.956 379.431 10.2 379.759 9.544C380.087 8.888 380.555 8.376 381.163 8.008C381.771 7.64 382.499 7.456 383.347 7.456C384.355 7.456 385.179 7.708 385.819 8.212C386.467 8.708 386.871 9.408 387.031 10.312H385.339C385.235 9.856 385.011 9.5 384.667 9.244C384.331 8.98 383.883 8.848 383.323 8.848C382.547 8.848 381.939 9.112 381.499 9.64C381.059 10.168 380.839 10.892 380.839 11.812C380.839 12.732 381.059 13.456 381.499 13.984C381.939 14.504 382.547 14.764 383.323 14.764C383.883 14.764 384.331 14.644 384.667 14.404C385.011 14.156 385.235 13.816 385.339 13.384H387.031C386.871 14.248 386.467 14.924 385.819 15.412C385.179 15.9 384.355 16.144 383.347 16.144ZM393.326 16.144C392.486 16.144 391.75 15.96 391.118 15.592C390.494 15.224 390.002 14.716 389.642 14.068C389.29 13.412 389.114 12.656 389.114 11.8C389.114 10.944 389.29 10.192 389.642 9.544C390.002 8.888 390.494 8.376 391.118 8.008C391.75 7.64 392.486 7.456 393.326 7.456C394.158 7.456 394.89 7.64 395.522 8.008C396.154 8.376 396.646 8.888 396.998 9.544C397.35 10.192 397.526 10.944 397.526 11.8C397.526 12.656 397.35 13.412 396.998 14.068C396.646 14.716 396.154 15.224 395.522 15.592C394.89 15.96 394.158 16.144 393.326 16.144ZM393.326 14.764C394.126 14.764 394.762 14.5 395.234 13.972C395.714 13.444 395.954 12.72 395.954 11.8C395.954 10.88 395.714 10.156 395.234 9.628C394.762 9.1 394.126 8.836 393.326 8.836C392.526 8.836 391.886 9.1 391.406 9.628C390.926 10.156 390.686 10.88 390.686 11.8C390.686 12.72 390.926 13.444 391.406 13.972C391.886 14.5 392.526 14.764 393.326 14.764ZM399.882 16V7.6H401.418L405.366 13.516V7.6H406.902V16H405.366L401.418 10.096V16H399.882ZM412.399 16.144C411.783 16.144 411.239 16.04 410.767 15.832C410.295 15.616 409.923 15.312 409.651 14.92C409.379 14.52 409.239 14.036 409.231 13.468H410.851C410.867 13.86 411.007 14.192 411.271 14.464C411.543 14.728 411.915 14.86 412.387 14.86C412.795 14.86 413.119 14.764 413.359 14.572C413.599 14.372 413.719 14.108 413.719 13.78C413.719 13.436 413.611 13.168 413.395 12.976C413.187 12.784 412.907 12.628 412.555 12.508C412.203 12.388 411.827 12.26 411.427 12.124C410.779 11.9 410.283 11.612 409.939 11.26C409.603 10.908 409.435 10.44 409.435 9.856C409.427 9.36 409.543 8.936 409.783 8.584C410.031 8.224 410.367 7.948 410.791 7.756C411.215 7.556 411.703 7.456 412.255 7.456C412.815 7.456 413.307 7.556 413.731 7.756C414.163 7.956 414.499 8.236 414.739 8.596C414.987 8.956 415.119 9.384 415.135 9.88H413.491C413.483 9.584 413.367 9.324 413.143 9.1C412.927 8.868 412.623 8.752 412.231 8.752C411.895 8.744 411.611 8.828 411.379 9.004C411.155 9.172 411.043 9.42 411.043 9.748C411.043 10.028 411.131 10.252 411.307 10.42C411.483 10.58 411.723 10.716 412.027 10.828C412.331 10.94 412.679 11.06 413.071 11.188C413.487 11.332 413.867 11.5 414.211 11.692C414.555 11.884 414.831 12.14 415.039 12.46C415.247 12.772 415.351 13.176 415.351 13.672C415.351 14.112 415.239 14.52 415.015 14.896C414.791 15.272 414.459 15.576 414.019 15.808C413.579 16.032 413.039 16.144 412.399 16.144Z" fill="#8F9BB3"/>
<path d="M1.36 19V5H6.98C8.43333 5 9.54 5.34 10.3 6.02C11.0733 6.68667 11.46 7.54667 11.46 8.6C11.46 9.48 11.22 10.1867 10.74 10.72C10.2733 11.24 9.7 11.5933 9.02 11.78C9.82 11.94 10.48 12.34 11 12.98C11.52 13.6067 11.78 14.34 11.78 15.18C11.78 16.2867 11.38 17.2 10.58 17.92C9.78 18.64 8.64667 19 7.18 19H1.36ZM3.92 10.88H6.6C7.32 10.88 7.87333 10.7133 8.26 10.38C8.64667 10.0467 8.84 9.57333 8.84 8.96C8.84 8.37333 8.64667 7.91333 8.26 7.58C7.88667 7.23333 7.32 7.06 6.56 7.06H3.92V10.88ZM3.92 16.92H6.78C7.54 16.92 8.12667 16.7467 8.54 16.4C8.96667 16.04 9.18 15.54 9.18 14.9C9.18 14.2467 8.96 13.7333 8.52 13.36C8.08 12.9867 7.48667 12.8 6.74 12.8H3.92V16.92ZM16.3372 19.24C15.4839 19.24 14.7839 19.1067 14.2372 18.84C13.6905 18.56 13.2839 18.1933 13.0172 17.74C12.7505 17.2867 12.6172 16.7867 12.6172 16.24C12.6172 15.32 12.9772 14.5733 13.6972 14C14.4172 13.4267 15.4972 13.14 16.9372 13.14H19.4572V12.9C19.4572 12.22 19.2639 11.72 18.8772 11.4C18.4905 11.08 18.0105 10.92 17.4372 10.92C16.9172 10.92 16.4639 11.0467 16.0772 11.3C15.6905 11.54 15.4505 11.9 15.3572 12.38H12.8572C12.9239 11.66 13.1639 11.0333 13.5772 10.5C14.0039 9.96667 14.5505 9.56 15.2172 9.28C15.8839 8.98667 16.6305 8.84 17.4572 8.84C18.8705 8.84 19.9839 9.19333 20.7972 9.9C21.6105 10.6067 22.0172 11.6067 22.0172 12.9V19H19.8372L19.5972 17.4C19.3039 17.9333 18.8905 18.3733 18.3572 18.72C17.8372 19.0667 17.1639 19.24 16.3372 19.24ZM16.9172 17.24C17.6505 17.24 18.2172 17 18.6172 16.52C19.0305 16.04 19.2905 15.4467 19.3972 14.74H17.2172C16.5372 14.74 16.0505 14.8667 15.7572 15.12C15.4639 15.36 15.3172 15.66 15.3172 16.02C15.3172 16.4067 15.4639 16.7067 15.7572 16.92C16.0505 17.1333 16.4372 17.24 16.9172 17.24ZM27.5602 19.24C26.6802 19.24 25.9068 19.1 25.2402 18.82C24.5735 18.5267 24.0402 18.1267 23.6402 17.62C23.2402 17.1133 23.0002 16.5267 22.9202 15.86H25.5002C25.5802 16.2467 25.7935 16.58 26.1402 16.86C26.5002 17.1267 26.9602 17.26 27.5202 17.26C28.0802 17.26 28.4868 17.1467 28.7402 16.92C29.0068 16.6933 29.1402 16.4333 29.1402 16.14C29.1402 15.7133 28.9535 15.4267 28.5802 15.28C28.2068 15.12 27.6868 14.9667 27.0202 14.82C26.5935 14.7267 26.1602 14.6133 25.7202 14.48C25.2802 14.3467 24.8735 14.18 24.5002 13.98C24.1402 13.7667 23.8468 13.5 23.6202 13.18C23.3935 12.8467 23.2802 12.44 23.2802 11.96C23.2802 11.08 23.6268 10.34 24.3202 9.74C25.0268 9.14 26.0135 8.84 27.2802 8.84C28.4535 8.84 29.3868 9.11333 30.0802 9.66C30.7868 10.2067 31.2068 10.96 31.3402 11.92H28.9202C28.7735 11.1867 28.2202 10.82 27.2602 10.82C26.7802 10.82 26.4068 10.9133 26.1402 11.1C25.8868 11.2867 25.7602 11.52 25.7602 11.8C25.7602 12.0933 25.9535 12.3267 26.3402 12.5C26.7268 12.6733 27.2402 12.8333 27.8802 12.98C28.5735 13.14 29.2068 13.32 29.7802 13.52C30.3668 13.7067 30.8335 13.9933 31.1802 14.38C31.5268 14.7533 31.7002 15.2933 31.7002 16C31.7135 16.6133 31.5535 17.1667 31.2202 17.66C30.8868 18.1533 30.4068 18.54 29.7802 18.82C29.1535 19.1 28.4135 19.24 27.5602 19.24ZM34.348 7.54C33.8813 7.54 33.4946 7.4 33.188 7.12C32.8946 6.84 32.748 6.48667 32.748 6.06C32.748 5.63333 32.8946 5.28667 33.188 5.02C33.4946 4.74 33.8813 4.6 34.348 4.6C34.8146 4.6 35.1946 4.74 35.488 5.02C35.7946 5.28667 35.948 5.63333 35.948 6.06C35.948 6.48667 35.7946 6.84 35.488 7.12C35.1946 7.4 34.8146 7.54 34.348 7.54ZM33.068 19V9.08H35.628V19H33.068ZM42.16 19.24C41.1467 19.24 40.2533 19.02 39.48 18.58C38.7067 18.14 38.0933 17.5267 37.64 16.74C37.2 15.9533 36.98 15.0533 36.98 14.04C36.98 13.0267 37.2 12.1267 37.64 11.34C38.0933 10.5533 38.7067 9.94 39.48 9.5C40.2533 9.06 41.1467 8.84 42.16 8.84C43.4267 8.84 44.4933 9.17333 45.36 9.84C46.2267 10.4933 46.78 11.4 47.02 12.56H44.32C44.1867 12.08 43.92 11.7067 43.52 11.44C43.1333 11.16 42.6733 11.02 42.14 11.02C41.4333 11.02 40.8333 11.2867 40.34 11.82C39.8467 12.3533 39.6 13.0933 39.6 14.04C39.6 14.9867 39.8467 15.7267 40.34 16.26C40.8333 16.7933 41.4333 17.06 42.14 17.06C42.6733 17.06 43.1333 16.9267 43.52 16.66C43.92 16.3933 44.1867 16.0133 44.32 15.52H47.02C46.78 16.64 46.2267 17.54 45.36 18.22C44.4933 18.9 43.4267 19.24 42.16 19.24Z" fill="#2E3A59"/>
</svg>
