<svg width="416" height="24" viewBox="0 0 416 24" fill="none" xmlns="http://www.w3.org/2000/svg">
<path d="M328 15C326.343 15 325 13.6569 325 12C325 10.3431 326.343 9 328 9C329.657 9 331 10.3431 331 12C331 12.7956 330.684 13.5587 330.121 14.1213C329.559 14.6839 328.796 15 328 15Z" fill="#14CC9E"/>
<path d="M340.816 16V7.6H342.352L346.3 13.516V7.6H347.836V16H346.3L342.352 10.096V16H340.816ZM350.464 16V7.6H355.948V8.836H352V11.14H355.588V12.34H352V14.764H355.948V16H350.464ZM360.106 16L357.886 7.6H359.53L361.042 14.284L362.818 7.6H364.51L366.238 14.284L367.75 7.6H369.406L367.126 16H365.302L363.634 9.772L361.918 16H360.106ZM375.379 16V7.6H376.915V16H375.379ZM383.347 16.144C382.499 16.144 381.771 15.964 381.163 15.604C380.555 15.236 380.087 14.728 379.759 14.08C379.431 13.424 379.267 12.668 379.267 11.812C379.267 10.956 379.431 10.2 379.759 9.544C380.087 8.888 380.555 8.376 381.163 8.008C381.771 7.64 382.499 7.456 383.347 7.456C384.355 7.456 385.179 7.708 385.819 8.212C386.467 8.708 386.871 9.408 387.031 10.312H385.339C385.235 9.856 385.011 9.5 384.667 9.244C384.331 8.98 383.883 8.848 383.323 8.848C382.547 8.848 381.939 9.112 381.499 9.64C381.059 10.168 380.839 10.892 380.839 11.812C380.839 12.732 381.059 13.456 381.499 13.984C381.939 14.504 382.547 14.764 383.323 14.764C383.883 14.764 384.331 14.644 384.667 14.404C385.011 14.156 385.235 13.816 385.339 13.384H387.031C386.871 14.248 386.467 14.924 385.819 15.412C385.179 15.9 384.355 16.144 383.347 16.144ZM393.326 16.144C392.486 16.144 391.75 15.96 391.118 15.592C390.494 15.224 390.002 14.716 389.642 14.068C389.29 13.412 389.114 12.656 389.114 11.8C389.114 10.944 389.29 10.192 389.642 9.544C390.002 8.888 390.494 8.376 391.118 8.008C391.75 7.64 392.486 7.456 393.326 7.456C394.158 7.456 394.89 7.64 395.522 8.008C396.154 8.376 396.646 8.888 396.998 9.544C397.35 10.192 397.526 10.944 397.526 11.8C397.526 12.656 397.35 13.412 396.998 14.068C396.646 14.716 396.154 15.224 395.522 15.592C394.89 15.96 394.158 16.144 393.326 16.144ZM393.326 14.764C394.126 14.764 394.762 14.5 395.234 13.972C395.714 13.444 395.954 12.72 395.954 11.8C395.954 10.88 395.714 10.156 395.234 9.628C394.762 9.1 394.126 8.836 393.326 8.836C392.526 8.836 391.886 9.1 391.406 9.628C390.926 10.156 390.686 10.88 390.686 11.8C390.686 12.72 390.926 13.444 391.406 13.972C391.886 14.5 392.526 14.764 393.326 14.764ZM399.882 16V7.6H401.418L405.366 13.516V7.6H406.902V16H405.366L401.418 10.096V16H399.882ZM412.399 16.144C411.783 16.144 411.239 16.04 410.767 15.832C410.295 15.616 409.923 15.312 409.651 14.92C409.379 14.52 409.239 14.036 409.231 13.468H410.851C410.867 13.86 411.007 14.192 411.271 14.464C411.543 14.728 411.915 14.86 412.387 14.86C412.795 14.86 413.119 14.764 413.359 14.572C413.599 14.372 413.719 14.108 413.719 13.78C413.719 13.436 413.611 13.168 413.395 12.976C413.187 12.784 412.907 12.628 412.555 12.508C412.203 12.388 411.827 12.26 411.427 12.124C410.779 11.9 410.283 11.612 409.939 11.26C409.603 10.908 409.435 10.44 409.435 9.856C409.427 9.36 409.543 8.936 409.783 8.584C410.031 8.224 410.367 7.948 410.791 7.756C411.215 7.556 411.703 7.456 412.255 7.456C412.815 7.456 413.307 7.556 413.731 7.756C414.163 7.956 414.499 8.236 414.739 8.596C414.987 8.956 415.119 9.384 415.135 9.88H413.491C413.483 9.584 413.367 9.324 413.143 9.1C412.927 8.868 412.623 8.752 412.231 8.752C411.895 8.744 411.611 8.828 411.379 9.004C411.155 9.172 411.043 9.42 411.043 9.748C411.043 10.028 411.131 10.252 411.307 10.42C411.483 10.58 411.723 10.716 412.027 10.828C412.331 10.94 412.679 11.06 413.071 11.188C413.487 11.332 413.867 11.5 414.211 11.692C414.555 11.884 414.831 12.14 415.039 12.46C415.247 12.772 415.351 13.176 415.351 13.672C415.351 14.112 415.239 14.52 415.015 14.896C414.791 15.272 414.459 15.576 414.019 15.808C413.579 16.032 413.039 16.144 412.399 16.144Z" fill="#8F9BB3"/>
<path d="M1.36 19V5H10.4V7.06H3.92V10.98H9.16V13H3.92V19H1.36ZM12.6956 7.54C12.229 7.54 11.8423 7.4 11.5356 7.12C11.2423 6.84 11.0956 6.48667 11.0956 6.06C11.0956 5.63333 11.2423 5.28667 11.5356 5.02C11.8423 4.74 12.229 4.6 12.6956 4.6C13.1623 4.6 13.5423 4.74 13.8356 5.02C14.1423 5.28667 14.2956 5.63333 14.2956 6.06C14.2956 6.48667 14.1423 6.84 13.8356 7.12C13.5423 7.4 13.1623 7.54 12.6956 7.54ZM11.4156 19V9.08H13.9756V19H11.4156ZM15.6477 19V4.6H18.2077V19H15.6477ZM24.6434 19.24C23.6434 19.24 22.7568 19.0267 21.9834 18.6C21.2101 18.1733 20.6034 17.5733 20.1634 16.8C19.7234 16.0267 19.5034 15.1333 19.5034 14.12C19.5034 13.0933 19.7168 12.18 20.1434 11.38C20.5834 10.58 21.1834 9.96 21.9434 9.52C22.7168 9.06667 23.6234 8.84 24.6634 8.84C25.6368 8.84 26.4968 9.05333 27.2434 9.48C27.9901 9.90667 28.5701 10.4933 28.9834 11.24C29.4101 11.9733 29.6234 12.7933 29.6234 13.7C29.6234 13.8467 29.6168 14 29.6034 14.16C29.6034 14.32 29.5968 14.4867 29.5834 14.66H22.0434C22.0968 15.4333 22.3634 16.04 22.8434 16.48C23.3368 16.92 23.9301 17.14 24.6234 17.14C25.1434 17.14 25.5768 17.0267 25.9234 16.8C26.2834 16.56 26.5501 16.2533 26.7234 15.88H29.3234C29.1368 16.5067 28.8234 17.08 28.3834 17.6C27.9568 18.1067 27.4234 18.5067 26.7834 18.8C26.1568 19.0933 25.4434 19.24 24.6434 19.24ZM24.6634 10.92C24.0368 10.92 23.4834 11.1 23.0034 11.46C22.5234 11.8067 22.2168 12.34 22.0834 13.06H27.0234C26.9834 12.4067 26.7434 11.8867 26.3034 11.5C25.8634 11.1133 25.3168 10.92 24.6634 10.92Z" fill="#2E3A59"/>
</svg>
